<svg width="21" height="22" viewBox="0 0 21 22" fill="none" xmlns="http://www.w3.org/2000/svg">
<path d="M10.501 21.6594C4.70412 21.6531 0.00636612 16.9558 0 11.1594V10.9494C0.11544 5.1792 4.8668 0.583797 10.6383 0.660367C16.4097 0.736937 21.0375 5.45677 20.9998 11.228C20.9621 16.9993 16.273 21.6583 10.501 21.6594ZM10.501 2.75944C5.86139 2.75944 2.10021 6.52025 2.10021 11.1594C2.10021 15.7986 5.86139 19.5594 10.501 19.5594C15.1407 19.5594 18.9019 15.7986 18.9019 11.1594C18.8967 6.5224 15.1385 2.76465 10.501 2.75944ZM8.9784 16.4094L7.49355 14.9237L11.2057 11.2119L7.49355 7.50019L8.9784 6.01444L14.1764 11.2119L8.97945 16.4094H8.9784Z" fill="#065F8E"/>
</svg>
