<svg width="30" height="48" viewBox="0 0 30 48" fill="none" xmlns="http://www.w3.org/2000/svg">
<path d="M20 21H10V19H12V18H6C4.89543 18 4 17.1046 4 16V5C4 3.89543 4.89543 3 6 3H24C25.1046 3 26 3.89543 26 5V16C26 17.1046 25.1046 18 24 18H18V19H20V21ZM6 5V16H24V5H6Z" fill="white"/>
<path d="M2.39 35.51H7.6V36.28H2.39V35.51ZM2.39 34.2H7.6V34.96H2.39V34.2ZM9.44 38.17V37.54H5.35V36.86H8.35V33.63H5.27V32.96H9.02V32.35H5.27V31.64H4.52V33.63H1.66V36.86H4.61V37.54H0.57V38.17H3.95C3.06 38.99 1.65 39.72 0.41 40.07C0.56 40.21 0.77 40.47 0.88 40.65C2.18 40.21 3.69 39.33 4.61 38.32V40.77H5.35V38.32C6.25 39.35 7.73 40.19 9.11 40.61C9.22 40.42 9.43 40.14 9.59 39.99C8.26 39.68 6.87 39 6.01 38.17H9.44ZM16.71 35.27L16.82 35.83C17.45 35.77 18.16 35.72 18.91 35.64C18.97 35.79 19.01 35.93 19.03 36.05L19.51 35.82C19.44 35.44 19.16 34.84 18.89 34.38L18.43 34.57C18.53 34.74 18.63 34.94 18.72 35.14L17.66 35.21C18.14 34.55 18.67 33.69 19.09 32.98L18.55 32.72C18.39 33.07 18.17 33.48 17.93 33.89C17.81 33.75 17.65 33.6 17.49 33.44C17.74 33.04 18.06 32.46 18.31 31.96L17.73 31.73C17.59 32.14 17.34 32.7 17.12 33.13C17.04 33.06 16.96 33.01 16.89 32.95L16.58 33.36C16.96 33.65 17.38 34.05 17.63 34.37C17.43 34.7 17.22 35 17.03 35.25L16.71 35.27ZM13.26 35.37L13.37 35.96C13.98 35.9 14.67 35.83 15.39 35.77C15.43 35.89 15.45 36.01 15.47 36.11L15.96 35.9C15.89 35.52 15.66 34.91 15.4 34.46L14.94 34.63C15.04 34.82 15.13 35.03 15.21 35.25L14.23 35.31C14.74 34.63 15.3 33.72 15.73 32.98L15.19 32.72C15.03 33.07 14.81 33.48 14.57 33.89C14.46 33.75 14.31 33.6 14.14 33.45C14.39 33.04 14.69 32.45 14.95 31.96L14.37 31.73C14.23 32.14 13.99 32.7 13.77 33.13C13.69 33.07 13.61 33.01 13.53 32.95L13.22 33.36C13.59 33.65 14.02 34.06 14.28 34.38C14.05 34.73 13.82 35.07 13.61 35.35L13.26 35.37ZM18.08 37.47C17.89 37.91 17.62 38.32 17.29 38.69C17.15 38.3 17.03 37.84 16.93 37.31H19.37V36.71H18.55L18.76 36.49C18.53 36.26 18.08 35.97 17.7 35.77L17.35 36.13C17.63 36.28 17.95 36.51 18.19 36.71H16.83C16.62 35.32 16.51 33.59 16.53 31.64H15.86C15.87 33.52 15.96 35.26 16.18 36.71H13.38L13.42 36.65C13.27 36.37 12.59 35.28 12.33 34.92V34.47H13.41V33.79H12.33V31.63H11.66V33.79H10.4V34.47H11.59C11.32 35.82 10.76 37.4 10.19 38.23C10.31 38.39 10.48 38.67 10.56 38.85C10.97 38.21 11.36 37.19 11.66 36.13V40.75H12.33V35.76C12.6 36.26 12.91 36.87 13.04 37.19L13.35 36.75V37.31H14.06C13.96 38.5 13.69 39.62 12.78 40.25C12.94 40.36 13.13 40.59 13.23 40.74C13.96 40.21 14.33 39.43 14.54 38.54C14.96 38.83 15.38 39.15 15.62 39.38L16.04 38.87C15.73 38.59 15.15 38.19 14.66 37.89C14.68 37.7 14.71 37.51 14.72 37.31H16.28C16.41 38.03 16.58 38.66 16.79 39.18C16.27 39.63 15.63 40 14.92 40.28C15.05 40.4 15.23 40.63 15.32 40.75C15.96 40.49 16.55 40.15 17.06 39.75C17.44 40.41 17.91 40.78 18.51 40.78C19.17 40.78 19.39 40.45 19.51 39.33C19.36 39.27 19.13 39.14 19 39C18.95 39.9 18.84 40.14 18.55 40.14C18.17 40.14 17.84 39.85 17.56 39.32C18.04 38.85 18.44 38.31 18.72 37.71L18.08 37.47ZM21.45 35.05H24.09V34.38H23.22V31.61H22.54V34.38H21.45V31.84H20.78V35.77C20.78 37.28 20.69 39.07 20 40.33C20.16 40.43 20.41 40.65 20.52 40.77C21.13 39.76 21.35 38.46 21.42 37.16H22.81V40.75H23.49V36.49H21.44C21.45 36.25 21.45 36.01 21.45 35.77V35.05ZM28.18 35.33C27.96 36.4 27.58 37.33 27.09 38.09C26.61 37.3 26.26 36.37 26.02 35.33H28.18ZM28.53 34.63L28.4 34.66H25.25V32.76H29.07V32.08H24.55V34.93C24.55 36.53 24.48 38.78 23.61 40.39C23.78 40.45 24.08 40.64 24.22 40.75C25.05 39.21 25.23 36.99 25.25 35.33H25.39C25.67 36.62 26.08 37.77 26.66 38.7C26.14 39.35 25.54 39.84 24.89 40.16C25.05 40.3 25.26 40.58 25.36 40.76C26 40.4 26.59 39.93 27.09 39.32C27.58 39.93 28.17 40.42 28.87 40.77C29 40.58 29.23 40.3 29.38 40.16C28.65 39.84 28.04 39.35 27.54 38.73C28.22 37.71 28.73 36.41 28.98 34.78L28.53 34.63Z" fill="white"/>
</svg>
