<svg width="32" height="31" viewBox="0 0 32 31" fill="none" xmlns="http://www.w3.org/2000/svg">
<g clip-path="url(#clip0_2014:9808)">
<path d="M31.2825 9.4407C31.2825 9.4407 30.9817 7.3172 30.0553 6.38479C28.8822 5.15761 27.5709 5.1516 26.9693 5.07941C22.6622 4.7666 16.1954 4.7666 16.1954 4.7666H16.1834C16.1834 4.7666 9.71665 4.7666 5.40951 5.07941C4.80795 5.1516 3.49656 5.15761 2.32352 6.38479C1.39712 7.3172 1.10236 9.4407 1.10236 9.4407C1.10236 9.4407 0.789551 11.9372 0.789551 14.4276V16.7616C0.789551 19.2521 1.09634 21.7485 1.09634 21.7485C1.09634 21.7485 1.39712 23.872 2.3175 24.8045C3.49054 26.0316 5.03053 25.9895 5.7163 26.1219C8.18268 26.3565 16.1894 26.4287 16.1894 26.4287C16.1894 26.4287 22.6622 26.4166 26.9693 26.1098C27.5709 26.0376 28.8822 26.0316 30.0553 24.8045C30.9817 23.872 31.2825 21.7485 31.2825 21.7485C31.2825 21.7485 31.5892 19.2581 31.5892 16.7616V14.4276C31.5892 11.9372 31.2825 9.4407 31.2825 9.4407ZM13.0072 19.595V10.9386L21.3267 15.2818L13.0072 19.595Z" fill="white"/>
</g>
<defs>
<clipPath id="clip0_2014:9808">
<rect width="30.7997" height="30.7997" fill="white" transform="translate(0.789551 0.201172)"/>
</clipPath>
</defs>
</svg>
