<svg width="31" height="31" viewBox="0 0 31 31" fill="none" xmlns="http://www.w3.org/2000/svg">
<g clip-path="url(#clip0_2014:9804)">
<path d="M30.7997 15.3998C30.7997 6.89474 23.905 0 15.3998 0C6.89474 0 0 6.89474 0 15.3998C0 23.0862 5.63147 29.4573 12.9936 30.6126V19.8514H9.0835V15.3998H12.9936V12.0071C12.9936 8.14748 15.2928 6.01557 18.8104 6.01557C20.4947 6.01557 22.2576 6.31634 22.2576 6.31634V10.1062H20.3158C18.4028 10.1062 17.8061 11.2933 17.8061 12.5124V15.3998H22.0771L21.3944 19.8514H17.8061V30.6126C25.1682 29.4573 30.7997 23.0862 30.7997 15.3998Z" fill="white"/>
</g>
<defs>
<clipPath id="clip0_2014:9804">
<rect width="30.7997" height="30.7997" fill="white"/>
</clipPath>
</defs>
</svg>
