<svg width="32" height="31" viewBox="0 0 32 31" fill="none" xmlns="http://www.w3.org/2000/svg">
<g clip-path="url(#clip0_2014:9806)">
<path d="M10.0853 28.1136C21.7049 28.1136 28.0622 18.4844 28.0622 10.1366C28.0622 9.86595 28.0562 9.58923 28.0441 9.31853C29.2808 8.42419 30.3481 7.31641 31.1957 6.04727C30.0439 6.5597 28.8211 6.89437 27.5689 7.03984C28.8874 6.24953 29.8746 5.008 30.3475 3.54539C29.1072 4.28047 27.7507 4.799 26.3363 5.07876C25.3833 4.06616 24.1233 3.39569 22.751 3.17103C21.3788 2.94636 19.9707 3.18001 18.7446 3.83585C17.5184 4.49168 16.5425 5.53318 15.9676 6.79931C15.3927 8.06544 15.251 9.48569 15.5642 10.8405C13.0527 10.7144 10.5957 10.062 8.35256 8.9255C6.10937 7.78898 4.13007 6.19374 2.54295 4.2432C1.7363 5.63397 1.48946 7.2797 1.8526 8.84592C2.21575 10.4121 3.16163 11.7813 4.49801 12.6752C3.49474 12.6434 2.51344 12.3732 1.6352 11.8872V11.9654C1.6343 13.4249 2.13887 14.8397 3.06313 15.9692C3.9874 17.0988 5.27431 17.8734 6.70512 18.1614C5.77575 18.4157 4.80033 18.4527 3.85435 18.2697C4.25809 19.5249 5.04364 20.6227 6.10135 21.4099C7.15906 22.1972 8.43616 22.6346 9.75441 22.6611C7.5164 24.419 4.75181 25.3726 1.9059 25.3681C1.4012 25.3673 0.897003 25.3364 0.395996 25.2754C3.28713 27.1302 6.6503 28.1154 10.0853 28.1136Z" fill="white"/>
</g>
<defs>
<clipPath id="clip0_2014:9806">
<rect width="30.7997" height="30.7997" fill="white" transform="translate(0.395996 0.201172)"/>
</clipPath>
</defs>
</svg>
