<svg id="圖層_1" data-name="圖層 1" xmlns="http://www.w3.org/2000/svg" viewBox="0 0 632.77 124.29"><defs><style>.cls-1,.cls-6{fill:#065f8e;}.cls-1,.cls-2{stroke:#065f8e;stroke-miterlimit:10;}.cls-1{stroke-width:3px;}.cls-11,.cls-2{fill:#fff;}.cls-3{fill:#e5e6e7;}.cls-4{fill:#d0d2d4;}.cls-5{fill:#bcbcbd;}.cls-7{fill:#f1f0e9;}.cls-8{fill:#fac2a8;}.cls-9{fill:#272e39;}.cls-10{fill:#f1ef5b;}.cls-12{fill:#c3996b;}.cls-13{fill:#c6e9fa;opacity:0.5;}.cls-14{fill:#403f41;}.cls-15{fill:#f7a69a;}.cls-16{fill:#895d3b;}.cls-17{fill:#603811;}.cls-18{fill:#ba8e83;}.cls-19{fill:#cc9c8d;}.cls-20{fill:#e0ad99;}</style></defs><path class="cls-1" d="M137.44,95.27l11.35-51.49q1.92-8.84,10.45-8.84t10.5,8.84l11.35,51.49,13.54-55.64c.82-3.34,3.05-5,6.71-5a10.6,10.6,0,0,1,3.31.53q4.64,1.55,4.63,5.92a6.7,6.7,0,0,1-.26,1.81l-16.79,65.39q-2.19,8.43-10.61,8.42a10.24,10.24,0,0,1-8-3.41,11.9,11.9,0,0,1-2.51-5.22L159.29,55.35l-11.83,52.71a11.25,11.25,0,0,1-2.88,5.59,10.33,10.33,0,0,1-7.72,3q-8.37,0-10.56-8.42L109.51,42.88a7.12,7.12,0,0,1-.26-1.81,5.88,5.88,0,0,1,3.57-5.44,9.76,9.76,0,0,1,4.42-1.07q5.45,0,6.66,5.07Z"/><path class="cls-1" d="M260.07,65.37l.32-3.47q.38-4.36,5.71-4.37c2.84,0,4.79,1.09,5.86,3.25a5.88,5.88,0,0,1,.53,2.51v47.59a6.21,6.21,0,0,1-.8,3.2q-1.59,2.61-5.33,2.61-5.16,0-6-5.38l-.58-3.68q-5.28,9.5-18.07,9.49-13.63,0-21-11-5.22-7.78-5.22-18.87A31.58,31.58,0,0,1,220.85,69a25.8,25.8,0,0,1,21.37-11.46Q254.06,57.53,260.07,65.37ZM259,88.18V83.92a14.26,14.26,0,0,0-4.37-10.34,14,14,0,0,0-10.24-4.48,12.79,12.79,0,0,0-10.82,5.6q-3.61,5-3.62,12.52a22.7,22.7,0,0,0,2.56,11.14q3.94,7.08,11.78,7.09a12.77,12.77,0,0,0,8.84-3.68A17.66,17.66,0,0,0,259,88.18Z"/><path class="cls-1" d="M302.82,67.45A23.5,23.5,0,0,1,310,60.94a23.9,23.9,0,0,1,12.26-3.41q9.64,0,15.4,6.51,5.11,5.7,5.12,17v29.69a5.38,5.38,0,0,1-1.28,3.62,7.2,7.2,0,0,1-5.7,2.29q-4.15,0-6-2.88a5.48,5.48,0,0,1-.86-3V82.64a18.52,18.52,0,0,0-1.49-7.89,8.11,8.11,0,0,0-7.83-5.12q-5.76,0-11,6-4.15,4.7-4.16,9.65v25.53a5.32,5.32,0,0,1-1.49,3.83,7.23,7.23,0,0,1-5.44,2.08q-4.21,0-6.07-2.88a5.31,5.31,0,0,1-.86-3V63.61a6,6,0,0,1,1-3.57,5.15,5.15,0,0,1,4.58-2.19q4.91,0,5.86,5.33Z"/><path class="cls-1" d="M399.44,64.73V40.48a5.3,5.3,0,0,1,1.28-3.57,7,7,0,0,1,5.65-2.29q4.11,0,6,2.87a5.43,5.43,0,0,1,.85,3v70.4a5.91,5.91,0,0,1-1.17,3.84,5.57,5.57,0,0,1-4.58,2c-3.24,0-5.17-1.7-5.81-5.11l-.85-4.59a17.42,17.42,0,0,1-5.81,6.56,22.25,22.25,0,0,1-12.58,3.57q-13.59,0-20.95-11-5.22-7.78-5.22-18.92a31.56,31.56,0,0,1,5.65-18.81q7.72-10.87,20.89-10.88Q393.74,57.53,399.44,64.73Zm.11,23.45V83.92q0-8.11-7.14-12.64a13.46,13.46,0,0,0-7.36-2.18,12.88,12.88,0,0,0-11,5.7,20.73,20.73,0,0,0-3.57,12.42,22.39,22.39,0,0,0,2.51,11q4,7.24,11.88,7.25a12.7,12.7,0,0,0,9.22-4A17.76,17.76,0,0,0,399.55,88.18Z"/><path class="cls-1" d="M440.8,90.63a14.73,14.73,0,0,0,4.58,10.45,16.45,16.45,0,0,0,11.73,4.37,18.49,18.49,0,0,0,13.75-5.87,4.82,4.82,0,0,1,3.62-1.65,6,6,0,0,1,4.32,2,6.14,6.14,0,0,1,1.81,4.43q0,2.92-2.93,5.7-7.62,7.31-21.1,7.3-11.68,0-19.56-6.5-10.39-8.47-10.4-23.5,0-11.14,5.87-19.08,8.1-11,22.75-11a25.41,25.41,0,0,1,19.94,8.9A24.84,24.84,0,0,1,481.84,83q0,4.15-1.55,5.81c-1.14,1.21-3,1.81-5.54,1.81ZM441,79.92h25.11c1.1,0,1.65-.45,1.65-1.33a9.2,9.2,0,0,0-2.4-5.81q-3.67-4.53-10.29-4.53a14.38,14.38,0,0,0-7.4,2A13.13,13.13,0,0,0,441,79.92Z"/><path class="cls-1" d="M509.45,85.14v25.64a5.29,5.29,0,0,1-1.5,3.83,7.22,7.22,0,0,1-5.43,2.08c-2.7,0-4.68-.92-5.92-2.77a5.49,5.49,0,0,1-.9-3.14V63.4A5.27,5.27,0,0,1,497,59.77a6.78,6.78,0,0,1,5.17-2q4.1,0,5.75,3.09a5,5,0,0,1,.64,2.56V69A32.54,32.54,0,0,1,514,61.74a17.18,17.18,0,0,1,12-4.58,13.85,13.85,0,0,1,9.43,3.46,7.49,7.49,0,0,1,2.83,5.71,6.76,6.76,0,0,1-1.55,4.26,6.67,6.67,0,0,1-5.49,2.72,5.76,5.76,0,0,1-3.67-1.17A7.25,7.25,0,0,0,523,70.59Q515,70.59,509.45,85.14Z"/><path class="cls-2" d="M136.23,95.27l11.35-51.49q1.92-8.84,10.44-8.84t10.5,8.84l11.36,51.49,13.53-55.64q1.23-5,6.72-5a10.54,10.54,0,0,1,3.3.53q4.63,1.55,4.64,5.92a6.73,6.73,0,0,1-.27,1.81L191,108.27q-2.17,8.43-10.6,8.42a10.28,10.28,0,0,1-8-3.41,11.88,11.88,0,0,1-2.5-5.22L158.08,55.35l-11.83,52.71a11.25,11.25,0,0,1-2.88,5.59,10.35,10.35,0,0,1-7.73,3q-8.37,0-10.55-8.42L108.3,42.88a6.73,6.73,0,0,1-.27-1.81,5.88,5.88,0,0,1,3.57-5.44A9.8,9.8,0,0,1,116,34.56q5.43,0,6.66,5.07Z"/><path class="cls-2" d="M258.86,65.37l.32-3.47q.38-4.36,5.7-4.37c2.84,0,4.8,1.09,5.86,3.25a5.74,5.74,0,0,1,.54,2.51v47.59a6.31,6.31,0,0,1-.8,3.2c-1.07,1.74-2.84,2.61-5.33,2.61q-5.17,0-6-5.38l-.59-3.68q-5.26,9.5-18.06,9.49-13.65,0-21-11-5.22-7.78-5.23-18.87A31.58,31.58,0,0,1,219.63,69,25.8,25.8,0,0,1,241,57.53Q252.83,57.53,258.86,65.37Zm-1.12,22.81V83.92a14.26,14.26,0,0,0-4.37-10.34,14,14,0,0,0-10.23-4.48,12.76,12.76,0,0,0-10.82,5.6q-3.63,5-3.63,12.52a22.81,22.81,0,0,0,2.56,11.14q3.94,7.08,11.78,7.09a12.81,12.81,0,0,0,8.85-3.68A17.65,17.65,0,0,0,257.74,88.18Z"/><path class="cls-2" d="M301.6,67.45a24.41,24.41,0,0,1,19.46-9.92q9.65,0,15.4,6.51,5.12,5.7,5.12,17v29.69a5.38,5.38,0,0,1-1.28,3.62,7.21,7.21,0,0,1-5.71,2.29q-4.15,0-6-2.88a5.47,5.47,0,0,1-.85-3V82.64a18.67,18.67,0,0,0-1.49-7.89,8.11,8.11,0,0,0-7.84-5.12q-5.76,0-11,6-4.16,4.7-4.15,9.65v25.53a5.29,5.29,0,0,1-1.5,3.83,7.22,7.22,0,0,1-5.43,2.08q-4.21,0-6.08-2.88a5.31,5.31,0,0,1-.85-3V63.61a6.09,6.09,0,0,1,1-3.57A5.17,5.17,0,0,1,295,57.85c3.26,0,5.22,1.78,5.86,5.33Z"/><path class="cls-2" d="M398.23,64.73V40.48a5.25,5.25,0,0,1,1.28-3.57,7,7,0,0,1,5.65-2.29q4.09,0,6,2.87a5.51,5.51,0,0,1,.85,3v70.4a5.91,5.91,0,0,1-1.17,3.84,5.59,5.59,0,0,1-4.59,2q-4.85,0-5.81-5.11l-.85-4.59a17.34,17.34,0,0,1-5.81,6.56,22.23,22.23,0,0,1-12.58,3.57q-13.59,0-20.94-11Q355,98.36,355,87.22a31.62,31.62,0,0,1,5.64-18.81q7.74-10.87,20.9-10.88Q392.53,57.53,398.23,64.73Zm.11,23.45V83.92q0-8.11-7.15-12.64a13.41,13.41,0,0,0-7.35-2.18,12.88,12.88,0,0,0-11,5.7,20.73,20.73,0,0,0-3.57,12.42,22.39,22.39,0,0,0,2.5,11q4,7.24,11.89,7.25a12.71,12.71,0,0,0,9.22-4A17.8,17.8,0,0,0,398.34,88.18Z"/><path class="cls-2" d="M439.59,90.63a14.73,14.73,0,0,0,4.58,10.45,16.43,16.43,0,0,0,11.72,4.37,18.48,18.48,0,0,0,13.75-5.87,4.82,4.82,0,0,1,3.63-1.65,6,6,0,0,1,4.32,2,6.18,6.18,0,0,1,1.81,4.43q0,2.92-2.93,5.7-7.64,7.31-21.11,7.3-11.67,0-19.56-6.5-10.4-8.47-10.39-23.5,0-11.14,5.86-19.08,8.1-11,22.76-11A25.39,25.39,0,0,1,474,66.11,24.84,24.84,0,0,1,480.62,83q0,4.15-1.54,5.81-1.71,1.82-5.54,1.81Zm.21-10.71h25.1c1.1,0,1.65-.45,1.65-1.33a9.24,9.24,0,0,0-2.39-5.81q-3.69-4.53-10.29-4.53a14.44,14.44,0,0,0-7.41,2A13.15,13.15,0,0,0,439.8,79.92Z"/><path class="cls-2" d="M508.23,85.14v25.64a5.32,5.32,0,0,1-1.49,3.83,7.23,7.23,0,0,1-5.44,2.08q-4.05,0-5.91-2.77a5.42,5.42,0,0,1-.91-3.14V63.4a5.27,5.27,0,0,1,1.33-3.63,6.79,6.79,0,0,1,5.17-2q4.11,0,5.76,3.09a5,5,0,0,1,.64,2.56V69a32.23,32.23,0,0,1,5.43-7.25,17.18,17.18,0,0,1,12-4.58,13.86,13.86,0,0,1,9.43,3.46,7.51,7.51,0,0,1,2.82,5.71,6.75,6.75,0,0,1-1.54,4.26A6.67,6.67,0,0,1,530,73.31a5.79,5.79,0,0,1-3.68-1.17,7.21,7.21,0,0,0-4.58-1.55Q513.82,70.59,508.23,85.14Z"/><polygon class="cls-3" points="585.43 11.17 629.3 1.76 585.63 3.8 585.43 11.17"/><polygon class="cls-4" points="585.63 3.8 629.3 1.76 599.35 11.12 588.34 14.89 585.63 3.8"/><polygon class="cls-5" points="588.34 14.89 588.7 5.23 629.3 1.76 588.34 14.89"/><polygon class="cls-3" points="590.14 12.06 629.3 1.76 588.7 5.23 590.14 12.06"/><path class="cls-6" d="M470.7,63.37a192.57,192.57,0,0,0,24.41-16.63c7.72-6.09,15.09-12.67,23.08-18.65a119.24,119.24,0,0,1,12.55-8.21l3.31-1.79c1.09-.61,2.27-1.05,3.41-1.58L540.89,15c1.17-.47,2.37-.83,3.55-1.24A91.28,91.28,0,0,1,573.81,9a120.23,120.23,0,0,0-28.55,6.94A108.34,108.34,0,0,0,520,30.49c-2,1.45-3.9,3-5.86,4.47l-5.79,4.61c-3.89,3.06-7.77,6.15-11.81,9A127.89,127.89,0,0,1,470.7,63.37Z"/><path class="cls-6" d="M415.51,82.48a68.55,68.55,0,0,1,9.76-5.09,66.45,66.45,0,0,1,10.47-3.53A74.82,74.82,0,0,1,446.61,72a76,76,0,0,1,11-.41c-3.52,1.09-7.07,1.91-10.61,2.72s-7,1.58-10.52,2.45-6.93,1.82-10.41,2.82S419.11,81.65,415.51,82.48Z"/><path class="cls-6" d="M347,100.19c4-1.25,7.7-2.73,11.44-4.32L369.7,91a95.12,95.12,0,0,1,11.68-4.14,43.48,43.48,0,0,1,12.3-1.75c-4,1.16-7.79,2.49-11.57,4s-7.48,3.12-11.26,4.68c-1.9.76-3.79,1.55-5.72,2.29s-3.87,1.43-5.86,2A42.93,42.93,0,0,1,347,100.19Z"/><path class="cls-6" d="M274.38,96.25c4.12.61,8.16,1.3,12.2,1.84,1,.11,2,.23,3,.37l3,.32c1,.07,2,.2,3,.28l3,.19c4.05.22,8.1.29,12.16.16s8.14-.46,12.3-.78a52.37,52.37,0,0,1-12.1,3.11,64,64,0,0,1-12.53.5c-2.08-.15-4.17-.35-6.24-.64s-4.12-.71-6.14-1.22A60.44,60.44,0,0,1,274.38,96.25Z"/><path class="cls-6" d="M176.31,56.51c6.18,3.28,12.22,6.77,18.29,10.14q2.29,1.25,4.57,2.51l4.58,2.45,4.61,2.4c1.56.76,3.1,1.54,4.66,2.28s3.11,1.5,4.69,2.2l4.75,2.06c1.6.65,3.19,1.34,4.8,2s3.23,1.22,4.86,1.8a177.28,177.28,0,0,0,20,5.68,90.39,90.39,0,0,1-20.74-3.45c-1.69-.47-3.36-1-5-1.56s-3.31-1.19-5-1.78-3.25-1.35-4.88-2-3.2-1.45-4.8-2.18-3.13-1.59-4.7-2.38-3.09-1.66-4.63-2.51c-3-1.76-6-3.54-9-5.45Q184.56,63,176.31,56.51Z"/><path class="cls-6" d="M76,19.76a63,63,0,0,1,18.35.09c1.52.22,3.06.4,4.56.7l4.51.89c1.51.3,3,.73,4.47,1.09s3,.76,4.44,1.19c2.94.85,5.85,1.8,8.75,2.78s5.75,2.07,8.56,3.27a131.11,131.11,0,0,1,16.5,8L128.84,32c-5.76-1.87-11.52-3.73-17.33-5.36S99.88,23.36,94,22.15A111.07,111.07,0,0,0,76,19.76Z"/><path class="cls-6" d="M76,83.93A36.88,36.88,0,0,1,2.44,87.71h0c-.11-1-.17-2.07-.19-3.13h0V83.45c0-.2,0-.4,0-.6A36.88,36.88,0,0,1,76,83.93Z"/><path class="cls-7" d="M75.79,83l-1.14,1-1.72,1.24-1.65-1.23-4.51-4.56-2.09-.88-1.3.11-.82,1-.35,1.76-1.82,2.19-.64.95.63,1.07.93,1.93-.93,1.55L60,89.5l-2,2.66L56.58,96.3l.11.77-.47,1.34-.66.82L55,101.65l-3.59,6-2.62-.28-2.28-2.35-.41-3.5-.11-.43-.9-1.05h-.2l-.09-2.2-.13-3.08-1.12-2.61-.68-.68-2.43-1.82L38.3,89.6l-3.67-1.53-1.77-1.89-.23-4.75,3.79-3.93,1.24-.44,2.05,0,1-.15,2.73-1.87.64,0L45,76.28l3.5,1.14,3.78-.16,1.66-2.07-1.41-2.57-.92-.08-1.7.54-.84.67-3.49-.18-1.88-1.69h-.24l-2.09,1.88-.48.48-3.12.69-.26-1.66L38,71.13l1.34-1.36L40.49,69l1.84-.49,1.41-.71-.15-2.11-.43-1.14.51-1.8,2.26-2.17,3.92-.23,1.48,1.12,5.53.4,1.74-1.58,1.7.07.11-.16,1.19-.42h0l2.12-.25L64,59a11.71,11.71,0,0,1,2.19-.16A36.5,36.5,0,0,1,74.4,73.08a54.32,54.32,0,0,1,1.19,9.08Z"/><path class="cls-7" d="M25.77,94.89,23.69,96.7l-.12,4.63-.69,1.26-.69.7-2.46,2.53-.46.28-2,4.32-1.42,2.11a37,37,0,0,1-5.5-5.55l.13-3.18-.64-2L7.28,99l-.16-.37L6,96v-.55L3.71,89.64,2.44,87.71a22.17,22.17,0,0,1-.18-3.13h0c0-.4,0-.78,0-1.08v0c0-.29,0-.5,0-.59s0,0,0,0a4,4,0,0,1,1-.62l.85-.41,1.35,2.65.44,1.21,0,1.62,1.16,1.42,1-.69,1.5-1.35H13.7l2.86,2.72,1.66-.5.86.6,1.76.34Z"/><path class="cls-7" d="M2.87,77.12a36.51,36.51,0,0,1,2.28-7.71,39.81,39.81,0,0,1,5.63-9.08,17.63,17.63,0,0,1,3.7-.26l1.67-.36.7,1.16-2,1.73-1,0-3.74,1.77-.71,1.47,2.05,1.63,3.18-1,4.31,0,0,4-.58.58-4.13,1.72L11,74.12l-.47.49L8.36,79.19Z"/><polygon class="cls-7" points="31.69 61.66 26.63 63.66 25.64 63.68 24.4 62.27 23.16 59.06 23.16 57.56 26.21 56.22 28.3 55.22 30.43 54.32 34.79 54.34 36.07 54.65 36.22 57.64 32.31 61.42 31.69 61.66"/><polygon class="cls-7" points="24.62 55.16 21.47 57.03 18.87 57.44 18.22 58.17 17.32 58.26 16.23 56.65 17.25 55.98 19.43 55.98 23.16 54.71 24.62 55.16"/><polygon class="cls-7" points="60.16 96.89 59.87 100.19 57.11 102.82 57.56 99.18 60.16 96.89"/><path class="cls-8" d="M29.22,53.69a7.28,7.28,0,0,1-2.48,1.14c.09.37.16.75.23,1.12A20.65,20.65,0,0,0,30.19,55C29.88,54.58,29.56,54.13,29.22,53.69Z"/><path class="cls-9" d="M27.68,55.89c-.69.3-.84,1.19-.94,1.86s-.15,2.48-.94,1.09c-.49-.88-.91-3.33-.31-4s1.14-.11,1.75-.1c-.18.2-.34.36-.29.64S27.53,55.59,27.68,55.89Z"/><path class="cls-8" d="M41,55.54c.11,1.07.23,2.13.36,3.17l1.12.16c0-.33.09-1.55.21-3.28Z"/><path class="cls-9" d="M42.51,57.79s.11.86,1.46,1.47,2,1,.71,1.26c-.82.15-3.69-.35-3.88-1a2.64,2.64,0,0,1,.48-1.69.85.85,0,0,0,.54.51C42.19,58.38,42,57.79,42.51,57.79Z"/><polygon class="cls-10" points="43.8 35.48 34.48 36.42 34.48 32.84 43.24 32.84 43.8 35.48"/><path class="cls-10" d="M34.52,35.58a2.82,2.82,0,0,1,2.12-1.49,3,3,0,0,1,2.21,1.28c-.56,7-2.08,17.55-9.77,20.58-.35-.6-.65-1.23-1-1.81C34.47,48.56,34.18,43.21,34.52,35.58Z"/><path class="cls-10" d="M43.8,35.48S42.91,34,41.71,34s-2.22,1.4-2.22,1.4a203.09,203.09,0,0,1,1.37,21.74H43A111.52,111.52,0,0,0,43.8,35.48Z"/><path class="cls-11" d="M33.77,17l.55,15.62a17.79,17.79,0,0,0,9.46.14l-1.4-14.66s-6.5-1.46-8.61-1.1"/><path class="cls-8" d="M37.51,13.79l-.16,3.15,2.37,1.52s-.08-.69-.14-1.18l-.25-2.86Z"/><path class="cls-8" d="M37.2,12.11c0-1.26,1.15-1.77,2.34-1.56s1.62,1.28,1.42,3-.85,2.24-1.69,2.24C38.21,15.8,37.2,13.66,37.2,12.11Z"/><path class="cls-12" d="M37.61,13.39a7.18,7.18,0,0,1,.68-2.77,1.47,1.47,0,0,0-1.15,1.23,6.77,6.77,0,0,0,.31,2.36Z"/><path class="cls-13" d="M38.27,12.63s.11.6.22.64.86.14,1-.08a1.25,1.25,0,0,0,.12-.56A1.68,1.68,0,0,0,38.27,12.63Z"/><path class="cls-14" d="M38.18,12.54s0,.65.27.78,1.07.1,1.14-.12a2.74,2.74,0,0,0,.09-.66A2.3,2.3,0,0,0,38.18,12.54Zm1.26.62c-.13.21-.81.12-.92.08s-.2-.58-.2-.58a1.47,1.47,0,0,1,1.23,0A1,1,0,0,1,39.44,13.16Z"/><path class="cls-13" d="M41.19,12.63s-.09.6-.17.64-.64.14-.75-.08a1.56,1.56,0,0,1-.09-.56S40.51,12.35,41.19,12.63Z"/><path class="cls-14" d="M40.13,12.54a4.48,4.48,0,0,0,.06.66c.06.22.68.26.86.12s.2-.78.2-.78A1.32,1.32,0,0,0,40.13,12.54Zm.09.12s.31-.27.93,0c0,0-.08.54-.16.58s-.59.13-.68-.08A1.24,1.24,0,0,1,40.22,12.66Z"/><path class="cls-14" d="M39.61,12.73a.75.75,0,0,1,.57,0l0-.22h-.63Z"/><polygon class="cls-14" points="38.18 12.54 37.01 13.01 37.08 13.15 38.29 12.73 38.18 12.54"/><ellipse class="cls-14" cx="38.93" cy="12.86" rx="0.15" ry="0.24"/><ellipse class="cls-14" cx="40.47" cy="12.86" rx="0.15" ry="0.24"/><path class="cls-15" d="M40.05,12.87c0,.16.09.47.17.74,0,0,.12-.14.17,0s-.13.18-.13.18-.16.32-.41.08c0,0-.26,0-.19-.19s.15,0,.15,0a4.63,4.63,0,0,1-.07-.79.15.15,0,0,1,.13-.16h0A.15.15,0,0,1,40.05,12.87Z"/><path class="cls-16" d="M39.5,12.28a.64.64,0,0,0-.92.15s-.2-.25.16-.46S39.64,11.81,39.5,12.28Z"/><path class="cls-16" d="M40,12.28s.59-.4.93.15c0,0,.2-.25-.16-.46S39.86,11.81,40,12.28Z"/><path class="cls-11" d="M39.07,14.21c.08-.12.42.09.93,0,.32,0,.43-.13.54,0s0,.4-.56.44S38.92,14.42,39.07,14.21Z"/><path class="cls-17" d="M40.68,11.32a1.61,1.61,0,0,0-.55-.09c-.25,0-.25.26-.52.23s-.3-.19-.51-.18-.21.13-.43.18-.25-.14-.43-.11-.12.28-.41.29-.15-.07-.44.16-.09.85-.27.75a1.75,1.75,0,0,1-.48-.93,1.55,1.55,0,0,1,.27-.94,3.08,3.08,0,0,1,2.49-.93,1.74,1.74,0,0,1,1,.47c.46.35.38,1,.41,1.09s.24.18.06.54A2.19,2.19,0,0,0,40.68,11.32Z"/><path class="cls-8" d="M37.61,13.39s-.89-1-.78-.24.78,1.36,1,1Z"/><path class="cls-15" d="M30,35.1s1,1.06.93,1.28-1-.7-1-.7Z"/><path class="cls-8" d="M30.1,34.88a16.92,16.92,0,0,1,.47,3.1C30.46,38.59,30,37,30,37s.31,1.44.08,1.45-.72-1.61-.72-1.61.36,1.43.18,1.46-.64-1.43-.64-1.43.13,1.13,0,1.17a18.14,18.14,0,0,1-.46-2.86Z"/><path class="cls-18" d="M54.61,18.92s.72.64.6.78-1-.68-1-.68Z"/><path class="cls-19" d="M55.72,19.62c0,.15-.63-.18-1.09-.45-.52,0-1.26,0-1.26,0l.17-.4s.31,0,.65,0a3.91,3.91,0,0,1,.78.1h0l.14.1C55.43,19.27,55.72,19.51,55.72,19.62Z"/><path class="cls-20" d="M54.57,18.71s1.45.23,1.53.45S54.35,19,54.35,19Z"/><path class="cls-8" d="M56.31,18.9c-.06.23-1.65.08-1.65.08l-1,.13c.32.18.84.48.7.54a4.33,4.33,0,0,1-1.34-.46h0l-.33,0,.08-.78,2.09.1S56.37,18.68,56.31,18.9Z"/><path class="cls-8" d="M41.45,17.71c-1.79-.27-4-.84-5.86-1,.8.95,2.53,2.71,4.29,2.63A1.49,1.49,0,0,0,41.45,17.71Z"/><path class="cls-6" d="M29.45,26.67c-.06-2.84,4.42-6.87,4.42-6.87l-.11,12.8c.72.91,3,1.13,3,1.13l0-16.88a8.5,8.5,0,0,0-3-.14c-2.1.37-7.18,5.14-6.74,10.22a47.84,47.84,0,0,0,1.42,8.48l1.68-.53S29.51,29.52,29.45,26.67Z"/><path class="cls-6" d="M42.88,20.92c2.29.29,9.85-1.68,9.85-1.68l.08-.78H47.75c-2,0-2.25-.34-5.4-.64v0l-2-.32,1.28,16.24a6.27,6.27,0,0,0,2.16-.46L43,22.84"/></svg>