<svg width="307" height="131" viewBox="0 0 307 131" fill="none" xmlns="http://www.w3.org/2000/svg">
<ellipse cx="129" cy="83" rx="22" ry="21" fill="#F1EF5B"/>
<path d="M30.528 34.456C39.36 34.456 45.792 36.376 49.824 40.216C53.92 43.992 55.968 49.208 55.968 55.864C55.968 59.832 55.136 63.576 53.472 67.096C51.808 70.552 49.024 73.336 45.12 75.448C41.28 77.56 36.032 78.616 29.376 78.616H23.136V103H8.64V34.456H30.528ZM29.76 46.36H23.136V66.712H27.936C32.032 66.712 35.264 65.912 37.632 64.312C40.064 62.648 41.28 59.992 41.28 56.344C41.28 49.688 37.44 46.36 29.76 46.36ZM95.6093 49.624C96.3133 49.624 97.1453 49.656 98.1053 49.72C99.0653 49.784 99.8333 49.88 100.409 50.008L99.3533 63.448C98.9053 63.32 98.2333 63.224 97.3373 63.16C96.5053 63.032 95.7693 62.968 95.1293 62.968C92.6973 62.968 90.3613 63.416 88.1213 64.312C85.8813 65.144 84.0573 66.52 82.6493 68.44C81.3053 70.36 80.6333 72.984 80.6333 76.312V103H66.3293V50.584H77.1773L79.2893 59.416H79.9613C81.4973 56.728 83.6093 54.424 86.2973 52.504C88.9853 50.584 92.0893 49.624 95.6093 49.624ZM154.224 76.696C154.224 85.4 151.92 92.12 147.312 96.856C142.768 101.592 136.56 103.96 128.688 103.96C123.824 103.96 119.472 102.904 115.632 100.792C111.856 98.68 108.88 95.608 106.704 91.576C104.528 87.48 103.44 82.52 103.44 76.696C103.44 67.992 105.712 61.304 110.256 56.632C114.8 51.96 121.04 49.624 128.976 49.624C133.904 49.624 138.256 50.68 142.032 52.792C145.808 54.904 148.784 57.976 150.96 62.008C153.136 65.976 154.224 70.872 154.224 76.696ZM118.032 76.696C118.032 81.88 118.864 85.816 120.528 88.504C122.256 91.128 125.04 92.44 128.88 92.44C132.656 92.44 135.376 91.128 137.04 88.504C138.768 85.816 139.632 81.88 139.632 76.696C139.632 71.512 138.768 67.64 137.04 65.08C135.376 62.456 132.624 61.144 128.784 61.144C125.008 61.144 122.256 62.456 120.528 65.08C118.864 67.64 118.032 71.512 118.032 76.696ZM193.597 61.336H181.213V103H166.909V61.336H159.037V54.424L166.909 50.584V46.744C166.909 42.264 167.645 38.808 169.117 36.376C170.653 33.88 172.797 32.12 175.549 31.096C178.365 30.072 181.661 29.56 185.437 29.56C188.253 29.56 190.781 29.784 193.021 30.232C195.325 30.68 197.181 31.192 198.589 31.768L194.941 42.232C193.853 41.912 192.669 41.624 191.389 41.368C190.109 41.048 188.637 40.888 186.973 40.888C184.989 40.888 183.517 41.496 182.557 42.712C181.661 43.928 181.213 45.464 181.213 47.32V50.584H193.597V61.336ZM208.957 30.04C211.069 30.04 212.893 30.552 214.429 31.576C215.965 32.536 216.733 34.36 216.733 37.048C216.733 39.672 215.965 41.496 214.429 42.52C212.893 43.544 211.069 44.056 208.957 44.056C206.781 44.056 204.925 43.544 203.389 42.52C201.917 41.496 201.181 39.672 201.181 37.048C201.181 34.36 201.917 32.536 203.389 31.576C204.925 30.552 206.781 30.04 208.957 30.04ZM216.061 50.584V103H201.757V50.584H216.061ZM243.938 103H229.634V30.04H243.938V103ZM279.044 49.624C286.276 49.624 292.004 51.704 296.228 55.864C300.452 59.96 302.564 65.816 302.564 73.432V80.344H268.772C268.9 84.376 270.084 87.544 272.324 89.848C274.628 92.152 277.796 93.304 281.828 93.304C285.22 93.304 288.292 92.984 291.044 92.344C293.796 91.64 296.644 90.584 299.588 89.176V100.216C297.028 101.496 294.308 102.424 291.428 103C288.612 103.64 285.188 103.96 281.156 103.96C275.908 103.96 271.268 103 267.236 101.08C263.204 99.096 260.036 96.12 257.732 92.152C255.428 88.184 254.276 83.192 254.276 77.176C254.276 71.032 255.3 65.944 257.348 61.912C259.46 57.816 262.372 54.744 266.084 52.696C269.796 50.648 274.116 49.624 279.044 49.624ZM279.14 59.8C276.388 59.8 274.084 60.696 272.228 62.488C270.436 64.28 269.38 67.064 269.06 70.84H289.124C289.06 67.64 288.228 65.016 286.628 62.968C285.028 60.856 282.532 59.8 279.14 59.8Z" fill="black"/>
</svg>
