<svg id="b35aaa6d-091a-4a1a-bf77-4dd29f18684b" data-name="圖層 1" xmlns="http://www.w3.org/2000/svg" viewBox="0 0 32 32"><defs><style>.e4ae9922-2856-48a4-9395-5d90166d97f4{fill:#c5c2b3;}.bce42fa5-96dc-48b7-801c-56f30a98985b{fill:none;stroke:#c5c2b3;stroke-miterlimit:10;}</style></defs><path class="e4ae9922-2856-48a4-9395-5d90166d97f4" d="M10.69,11.5A5.16,5.16,0,0,1,16,6.5a5.16,5.16,0,0,1,5.31,5,5.16,5.16,0,0,1-5.31,5A5.16,5.16,0,0,1,10.69,11.5Zm5.31,3a3.1,3.1,0,0,0,3.19-3A3.1,3.1,0,0,0,16,8.5a3.1,3.1,0,0,0-3.19,3A3.1,3.1,0,0,0,16,14.5Z"/><path class="e4ae9922-2856-48a4-9395-5d90166d97f4" d="M10,19.84A7.79,7.79,0,0,0,7.5,25.5H9.62a5.84,5.84,0,0,1,1.87-4.24,6.66,6.66,0,0,1,9,0,5.83,5.83,0,0,1,1.86,4.24H24.5A7.79,7.79,0,0,0,22,19.84a8.89,8.89,0,0,0-12,0Z"/><circle class="bce42fa5-96dc-48b7-801c-56f30a98985b" cx="16" cy="16" r="15"/></svg>