<svg id="b817dd58-1e66-48b8-9531-b11d85b66639" data-name="圖層 1" xmlns="http://www.w3.org/2000/svg" viewBox="0 0 32 32"><defs><style>.f8e9b160-729e-48c8-8af0-5bfd28d49b5f{fill:#c5c2b3;}.aa0f6bb6-d498-471e-9afb-057c98b68a44,.f8e9b160-729e-48c8-8af0-5bfd28d49b5f{stroke:#c5c2b3;}.aa0f6bb6-d498-471e-9afb-057c98b68a44{fill:none;stroke-miterlimit:10;}</style></defs><path class="f8e9b160-729e-48c8-8af0-5bfd28d49b5f" d="M12,14.57v2.86a.34.34,0,0,1-.3.36H8.3a.34.34,0,0,1-.3-.36V14.57a.34.34,0,0,1,.3-.36h3.36A.34.34,0,0,1,12,14.57ZM8,23.14V20.29a.33.33,0,0,1,.3-.36h3.36a.33.33,0,0,1,.3.36v2.85a.33.33,0,0,1-.3.36H8.3A.33.33,0,0,1,8,23.14ZM8.3,8.5h3.36a.33.33,0,0,1,.3.36v2.85a.33.33,0,0,1-.3.36H8.3a.33.33,0,0,1-.3-.36V8.86A.33.33,0,0,1,8.3,8.5Zm15.4,15H14.32a.33.33,0,0,1-.3-.36V20.29a.33.33,0,0,1,.3-.36H23.7a.33.33,0,0,1,.3.36v2.85A.33.33,0,0,1,23.7,23.5ZM14,11.71V8.86a.33.33,0,0,1,.3-.36H23.7a.33.33,0,0,1,.3.36v2.85a.33.33,0,0,1-.3.36H14.32A.33.33,0,0,1,14,11.71Zm9.68,6.08H14.32a.34.34,0,0,1-.3-.36V14.57a.34.34,0,0,1,.3-.36H23.7a.34.34,0,0,1,.3.36v2.86A.34.34,0,0,1,23.7,17.79Z"/><circle class="aa0f6bb6-d498-471e-9afb-057c98b68a44" cx="16" cy="16" r="15"/></svg>