<svg width="17" height="16" viewBox="0 0 17 16" fill="none" xmlns="http://www.w3.org/2000/svg">
<path d="M4.45832 6.57143V9.42857C4.45832 9.66078 4.29171 9.78572 4.16145 9.78572H0.796875C0.666615 9.78572 0.5 9.66078 0.5 9.42857V6.57143C0.5 6.33922 0.666615 6.21429 0.796875 6.21429H4.16145C4.29171 6.21429 4.45832 6.33922 4.45832 6.57143ZM0.5 15.1429V12.2857C0.5 12.0535 0.666615 11.9286 0.796875 11.9286H4.16145C4.29171 11.9286 4.45832 12.0535 4.45832 12.2857V15.1429C4.45832 15.3751 4.29171 15.5 4.16145 15.5H0.796875C0.666615 15.5 0.5 15.3751 0.5 15.1429ZM0.796875 0.5H4.16145C4.29171 0.5 4.45832 0.624936 4.45832 0.857143V3.71429C4.45832 3.94649 4.29171 4.07143 4.16145 4.07143H0.796875C0.666615 4.07143 0.5 3.94649 0.5 3.71429V0.857143C0.5 0.624937 0.666615 0.5 0.796875 0.5ZM16.2031 15.5H6.8177C6.68744 15.5 6.52082 15.3751 6.52082 15.1429V12.2857C6.52082 12.0535 6.68744 11.9286 6.8177 11.9286H16.2031C16.3334 11.9286 16.5 12.0535 16.5 12.2857V15.1429C16.5 15.3751 16.3334 15.5 16.2031 15.5ZM6.52082 3.71429V0.857143C6.52082 0.624937 6.68744 0.5 6.8177 0.5H16.2031C16.3334 0.5 16.5 0.624937 16.5 0.857143V3.71429C16.5 3.94649 16.3334 4.07143 16.2031 4.07143H6.8177C6.68744 4.07143 6.52082 3.94649 6.52082 3.71429ZM16.2031 9.78572H6.8177C6.68744 9.78572 6.52082 9.66078 6.52082 9.42857V6.57143C6.52082 6.33922 6.68744 6.21429 6.8177 6.21429H16.2031C16.3334 6.21429 16.5 6.33922 16.5 6.57143V9.42857C16.5 9.66078 16.3334 9.78572 16.2031 9.78572Z" fill="#C6C3B4" stroke="#C6C3B4"/>
</svg>
