<svg width="17" height="19" viewBox="0 0 17 19" fill="none" xmlns="http://www.w3.org/2000/svg">
<path d="M3.1875 5C3.1875 2.23858 5.56599 0 8.5 0C11.434 0 13.8125 2.23858 13.8125 5C13.8125 7.76142 11.434 10 8.5 10C5.56599 10 3.1875 7.76142 3.1875 5ZM8.5 8C10.2604 8 11.6875 6.65685 11.6875 5C11.6875 3.34315 10.2604 2 8.5 2C6.73959 2 5.3125 3.34315 5.3125 5C5.3125 6.65685 6.73959 8 8.5 8Z" fill="#C6C3B4"/>
<path d="M2.48959 13.3431C0.895533 14.8434 0 16.8783 0 19H2.125C2.125 17.4087 2.79665 15.8826 3.99219 14.7574C5.18774 13.6321 6.80924 13 8.5 13C10.1908 13 11.8123 13.6321 13.0078 14.7574C14.2034 15.8826 14.875 17.4087 14.875 19H17C17 16.8783 16.1045 14.8434 14.5104 13.3431C12.9163 11.8429 10.7543 11 8.5 11C6.24566 11 4.08365 11.8429 2.48959 13.3431Z" fill="#C6C3B4"/>
</svg>
