<svg width="21" height="15" viewBox="0 0 21 15" fill="none" xmlns="http://www.w3.org/2000/svg">
<path d="M19.3274 0.00173169C17.4246 0.100902 13.6426 0.46187 11.3078 1.77436C11.1467 1.86492 11.0554 2.02596 11.0554 2.19432V13.7973C11.0554 14.1656 11.4939 14.3983 11.8637 14.2274C14.2659 13.1171 17.7399 12.8142 19.4576 12.7313C20.0441 12.7029 20.5 12.2711 20.5 11.7536V0.980681C20.5003 0.415952 19.967 -0.0314314 19.3274 0.00173169ZM9.69217 1.77436C7.35776 0.46187 3.57575 0.101221 1.67294 0.00173169C1.03334 -0.0314314 0.5 0.415952 0.5 0.980681V11.7539C0.5 12.2718 0.955911 12.7035 1.54238 12.7316C3.26081 12.8145 6.73657 13.1177 9.13869 14.2287C9.50745 14.3993 9.94461 14.1668 9.94461 13.7995V2.18858C9.94461 2.0199 9.85363 1.86524 9.69217 1.77436Z" fill="#C6C3B4"/>
</svg>
