<svg width="242" height="58" viewBox="0 0 242 58" fill="none" xmlns="http://www.w3.org/2000/svg">
<path d="M9.10141 5.47291C12.4819 4.58456 13.9772 1.45416 14.3022 0H160.412H227.698C227.698 6.26609 241.35 6.97995 242 6.97995V7.53517C239.237 8.01108 239.4 8.80425 239.4 8.96289C239.4 9.72434 241.133 10.1262 242 10.232V11.1045C239.237 11.4217 239.4 12.3735 239.4 12.5322C239.4 13.2936 241.133 13.6955 242 13.8013V14.6738C239.237 15.0703 239.4 15.9428 239.4 16.1015C239.4 16.8629 241.133 17.3177 242 17.4499V18.3224C239.237 18.5603 239.4 19.7501 239.4 19.9087C239.4 20.6067 241.133 20.9927 242 21.0985V21.971C239.4 22.2089 239.4 23.2401 239.4 23.3987C239.4 24.2236 241.133 24.6413 242 24.7471V25.6196C239.4 25.9368 239.4 26.968 239.4 27.1266C239.4 27.8881 241.133 28.2899 242 28.3957V29.2682C239.4 29.5855 239.4 30.458 239.4 30.6166C239.4 31.4415 241.133 31.8592 242 31.965V32.9168C239.237 33.2341 239.4 34.1066 239.4 34.2652C239.4 35.0266 241.133 35.4814 242 35.6136V36.4861C240.05 36.6447 239.4 37.6759 239.4 37.8345C239.4 38.7228 241.133 39.1564 242 39.2622V40.2933C239.237 40.452 239.4 41.5624 239.4 41.7211C239.4 42.2921 241.133 42.7522 242 42.9108V43.704C239.4 43.9419 239.4 45.0524 239.4 45.1317C239.4 45.8297 241.133 46.3215 242 46.4801V47.4319C239.075 47.7492 239.4 48.7803 239.4 48.9389C239.4 49.7004 241.133 50.1023 242 50.208V50.8426C230.428 50.8426 227.644 55.5488 227.698 57.9018H163.013H97.6776H14.3022C13.3271 54.0946 10.0766 53.0635 9.91404 52.9048C7.44365 51.4454 2.27535 50.9748 0 50.9219V50.208C2.11283 50.1287 2.6004 49.1769 2.6004 48.9389C2.6004 47.9871 0.866801 47.6434 0 47.5906V46.5594C1.9503 46.5594 2.6004 45.5283 2.6004 45.3697C2.6004 44.4178 0.866801 44.0213 0 43.9419V42.9108C1.9503 42.9108 2.6004 41.959 2.6004 41.8004C2.6004 40.7216 0.866801 40.452 0 40.452V39.1829C2.11283 39.1829 2.6004 38.2311 2.6004 38.0724C2.86044 37.1206 0.975151 36.8298 0 36.8034V35.6136C2.11283 35.6136 2.6004 34.5032 2.6004 34.3445C2.6004 33.4562 0.866801 33.1812 0 33.1548V32.0443C1.9503 31.965 2.6004 31.0132 2.6004 30.8545C2.6004 29.8393 0.866801 29.5855 0 29.5855V28.475C2.6004 28.1577 2.6004 27.2059 2.6004 27.1266C2.47038 26.3017 0.812626 26.0426 0 26.0162V24.7471C2.76293 24.5091 2.6004 23.6366 2.6004 23.478C2.6004 22.4627 0.866801 22.2089 0 22.2089V21.0985C2.76293 20.9398 2.6004 19.988 2.6004 19.8294C2.47038 18.8776 0.812626 18.5868 0 18.5603V17.5292C2.6004 17.2912 2.6004 16.3394 2.6004 16.1015C2.6004 15.1497 0.866801 14.8588 0 14.8324V13.8806C2.11283 13.8806 2.6004 12.7701 2.6004 12.5322C2.6004 11.6438 0.866801 11.3689 0 11.3424V10.1527C2.43788 9.83538 2.43788 9.12152 2.43788 8.88357C2.5679 8.12212 0.866801 7.77312 0 7.69381V6.90063C6.50101 6.90063 7.96373 5.79018 9.10141 5.47291Z" fill="#F1EF5B"/>
<path d="M56.0732 12.6191C47.2482 12.6191 40.0859 19.8859 40.0859 28.8395C40.0859 37.7932 47.2482 45.0599 56.0732 45.0599C64.8981 45.0599 72.0604 37.7932 72.0604 28.8395C72.0604 19.8859 64.8981 12.6191 56.0732 12.6191ZM58.3274 38.7177V41.8158H54.0588V38.6853C51.325 38.1013 49.0068 36.3171 48.831 33.1704H51.9645C52.1243 34.8735 53.2754 36.2036 56.2011 36.2036C59.3346 36.2036 60.038 34.614 60.038 33.6245C60.038 32.2782 59.3346 31.013 55.7694 30.1534C51.8046 29.1801 49.0868 27.5257 49.0868 24.2005C49.0868 21.4106 51.309 19.5939 54.0588 18.9937V15.8632H58.3274V19.0262C61.301 19.7561 62.7878 22.0432 62.8838 24.5249H59.7503C59.6703 22.7244 58.7271 21.4917 56.2011 21.4917C53.803 21.4917 52.3641 22.5947 52.3641 24.1518C52.3641 25.5143 53.4033 26.4065 56.6327 27.2499C59.8622 28.0934 63.3154 29.5045 63.3154 33.5921C63.2994 36.5604 61.1092 38.1824 58.3274 38.7177Z" fill="black"/>
<path d="M88.0781 31.5488C87.3761 31.7468 86.6381 31.9448 85.9361 32.1428V29.0648H87.8081V27.1028H85.9361V23.9708H88.0061V21.9908H81.7061V23.9708H83.8661V27.1028H81.8681V29.0648H83.8661V32.6828C82.8941 32.9348 82.0121 33.1688 81.2741 33.3308L81.8321 35.3468C83.6861 34.8068 86.0981 34.1048 88.3661 33.4388L88.0781 31.5488ZM90.7061 28.9568H95.4041V30.0728H90.7061V28.9568ZM90.7061 26.2208H95.4041V27.3368H90.7061V26.2208ZM90.7061 23.4848H95.4041V24.6008H90.7061V23.4848ZM95.6201 35.9408C95.3141 35.9408 95.2781 35.8688 95.2781 35.3468V31.8188H97.4921V21.7388H88.7081V31.8188H90.0221C89.7881 33.9248 89.2121 35.4008 85.9541 36.2108C86.3861 36.6248 86.9261 37.4528 87.1421 37.9748C90.9761 36.8408 91.8041 34.7528 92.1281 31.8188H93.2261V35.3468C93.2261 37.1648 93.5861 37.7768 95.2421 37.7768H96.5921C97.9241 37.7768 98.3921 37.1108 98.5721 34.6448C98.0321 34.5188 97.2041 34.1768 96.7901 33.8528C96.7541 35.6528 96.6641 35.9408 96.3581 35.9408H95.6201ZM105.538 28.6148C104.926 28.7768 104.314 28.9388 103.702 29.0828V26.4188H105.52V24.4388H103.702V21.0728H101.596V24.4388H99.3641V26.4188H101.596V29.6048C100.66 29.8388 99.7781 30.0368 99.0581 30.1808L99.5801 32.2328L101.596 31.7108V35.5628C101.596 35.8148 101.506 35.8868 101.272 35.9048C101.038 35.9048 100.3 35.9048 99.6161 35.8688C99.8501 36.4268 100.138 37.2908 100.192 37.8308C101.452 37.8308 102.316 37.7768 102.928 37.4528C103.522 37.1288 103.702 36.6068 103.702 35.5448V31.1528C104.404 30.9728 105.106 30.7748 105.79 30.5768L105.538 28.6148ZM116.014 27.0668H108.796V24.4388C111.082 24.0788 113.638 23.5388 115.582 22.8368L113.962 21.1268C112.612 21.6848 110.578 22.2248 108.58 22.6208L106.672 22.4048V28.3268C106.672 30.8648 106.474 34.0508 104.386 36.2828C104.908 36.5708 105.682 37.3088 105.97 37.7948C108.274 35.4548 108.724 31.8188 108.796 29.1008H111.37V37.8488H113.494V29.1008H116.014V27.0668ZM123.808 36.3008H121.09V28.8668C121.09 28.5548 121.096 28.1468 121.108 27.6428C121.132 27.1388 121.15 26.6948 121.162 26.3108C121.102 26.3828 120.97 26.5148 120.766 26.7068C120.574 26.8868 120.394 27.0488 120.226 27.1928L118.75 28.3808L117.436 26.7428L121.576 23.4488H123.808V36.3008ZM136.035 29.8748C136.035 31.2548 135.885 32.4368 135.585 33.4208C135.297 34.4048 134.823 35.1608 134.163 35.6888C133.515 36.2168 132.639 36.4808 131.535 36.4808C129.987 36.4808 128.853 35.8988 128.133 34.7348C127.413 33.5588 127.053 31.9388 127.053 29.8748C127.053 28.4828 127.197 27.2948 127.485 26.3108C127.773 25.3268 128.247 24.5708 128.907 24.0428C129.567 23.5148 130.443 23.2508 131.535 23.2508C133.071 23.2508 134.205 23.8328 134.937 24.9968C135.669 26.1608 136.035 27.7868 136.035 29.8748ZM129.753 29.8748C129.753 31.3388 129.879 32.4428 130.131 33.1868C130.383 33.9188 130.851 34.2848 131.535 34.2848C132.207 34.2848 132.675 33.9188 132.939 33.1868C133.203 32.4548 133.335 31.3508 133.335 29.8748C133.335 28.4108 133.203 27.3068 132.939 26.5628C132.675 25.8188 132.207 25.4468 131.535 25.4468C130.851 25.4468 130.383 25.8188 130.131 26.5628C129.879 27.3068 129.753 28.4108 129.753 29.8748ZM146.066 29.8748C146.066 31.2548 145.916 32.4368 145.616 33.4208C145.328 34.4048 144.854 35.1608 144.194 35.6888C143.546 36.2168 142.67 36.4808 141.566 36.4808C140.018 36.4808 138.884 35.8988 138.164 34.7348C137.444 33.5588 137.084 31.9388 137.084 29.8748C137.084 28.4828 137.228 27.2948 137.516 26.3108C137.804 25.3268 138.278 24.5708 138.938 24.0428C139.598 23.5148 140.474 23.2508 141.566 23.2508C143.102 23.2508 144.236 23.8328 144.968 24.9968C145.7 26.1608 146.066 27.7868 146.066 29.8748ZM139.784 29.8748C139.784 31.3388 139.91 32.4428 140.162 33.1868C140.414 33.9188 140.882 34.2848 141.566 34.2848C142.238 34.2848 142.706 33.9188 142.97 33.1868C143.234 32.4548 143.366 31.3508 143.366 29.8748C143.366 28.4108 143.234 27.3068 142.97 26.5628C142.706 25.8188 142.238 25.4468 141.566 25.4468C140.882 25.4468 140.414 25.8188 140.162 26.5628C139.91 27.3068 139.784 28.4108 139.784 29.8748ZM161.856 22.3148H149.076V24.3848H161.856V22.3148ZM159.462 35.5628C158.868 35.5628 158.76 35.4548 158.76 34.7708V29.2628H163.512V27.1748H147.456V29.2628H151.524C151.308 32.2508 150.804 34.6808 147.06 36.0848C147.546 36.4988 148.14 37.2908 148.392 37.8308C152.694 36.0848 153.522 33.0068 153.846 29.2628H156.546V34.7708C156.546 36.8768 157.068 37.5608 159.102 37.5608H161.262C163.098 37.5608 163.638 36.6248 163.854 33.4028C163.26 33.2588 162.342 32.8808 161.874 32.5028C161.784 35.0948 161.676 35.5628 161.082 35.5628H159.462Z" fill="black"/>
<line x1="24.2544" y1="2.96875" x2="24.2544" y2="55.6743" stroke="black" stroke-dasharray="3 3"/>
<line x1="219.488" y1="2.96875" x2="219.488" y2="55.6743" stroke="black" stroke-dasharray="3 3"/>
<path d="M11.7456 44.7712C11.7493 45.2932 11.9471 45.6908 12.339 45.9641C12.7309 46.2374 13.2659 46.3716 13.9439 46.3669C14.6278 46.3621 15.1579 46.2323 15.5342 45.9777C15.9043 45.7171 16.0875 45.3048 16.0835 44.7408C16.0817 44.4768 16.0498 44.216 15.988 43.9585C15.9262 43.6949 15.8402 43.4105 15.73 43.1053L16.873 43.0972C16.989 43.3784 17.0749 43.6568 17.1309 43.9325C17.1868 44.2081 17.216 44.5169 17.2184 44.8589C17.223 45.5188 17.0918 46.0658 16.8249 46.4997C16.5519 46.9276 16.1701 47.2453 15.6795 47.4527C15.183 47.6602 14.6047 47.7663 13.9447 47.7709C13.2967 47.7754 12.7229 47.6624 12.2233 47.4319C11.7237 47.2014 11.3313 46.8652 11.0462 46.4232C10.761 45.9752 10.6162 45.4272 10.6116 44.7792C10.6094 44.4612 10.6492 44.1429 10.731 43.8243C10.8067 43.4998 10.9125 43.19 11.0484 42.8951L12.1585 43.3283C12.0462 43.5691 11.9489 43.8128 11.8666 44.0594C11.7843 44.2999 11.744 44.5372 11.7456 44.7712ZM13.8458 36.2316C14.5118 36.2269 15.0945 36.3339 15.5941 36.5524C16.0876 36.7649 16.4739 37.0952 16.7531 37.5433C17.0322 37.9913 17.1742 38.5663 17.1792 39.2683C17.184 39.9643 17.0501 40.5412 16.7773 40.9992C16.5045 41.4511 16.1198 41.7898 15.6234 42.0153C15.1269 42.2348 14.5457 42.3468 13.8797 42.3515C13.2137 42.3562 12.634 42.2522 12.1405 42.0397C11.6469 41.8212 11.2636 41.4878 10.9904 41.0397C10.7112 40.5857 10.5692 40.0077 10.5643 39.3057C10.5594 38.6097 10.6934 38.0358 10.9662 37.5838C11.233 37.1319 11.6147 36.7963 12.1112 36.5768C12.6016 36.3513 13.1798 36.2363 13.8458 36.2316ZM13.8787 40.9205C14.5507 40.9158 15.0807 40.7831 15.4689 40.5223C15.8511 40.2616 16.0402 39.8463 16.0362 39.2763C16.0321 38.6943 15.8372 38.2787 15.4514 38.0294C15.0597 37.7801 14.5278 37.6579 13.8558 37.6626C13.1778 37.6673 12.6477 37.797 12.2655 38.0517C11.8833 38.3064 11.6942 38.7218 11.6982 39.2977C11.7023 39.8737 11.8972 40.2894 12.283 40.5447C12.6688 40.8 13.2007 40.9252 13.8787 40.9205ZM14.7547 29.8C15.1987 29.7969 15.6014 29.8931 15.9628 30.0885C16.3181 30.278 16.6022 30.5701 16.8149 30.9646C17.0217 31.3531 17.1271 31.8474 17.1313 32.4474C17.1373 33.2994 16.9259 33.9489 16.497 34.3959C16.0621 34.8429 15.4877 35.069 14.7737 35.074L10.6338 35.103L10.6243 33.744L14.5572 33.7165C15.0852 33.7128 15.4564 33.6022 15.6709 33.3847C15.8854 33.1671 15.9911 32.8454 15.9881 32.4194C15.985 31.9754 15.8658 31.6552 15.6304 31.4589C15.395 31.2565 15.0282 31.1571 14.5303 31.1606L10.6064 31.1881L10.5968 29.8291L14.7547 29.8ZM10.5724 26.3385C10.5665 25.5105 10.7423 24.9063 11.0997 24.5257C11.451 24.1393 11.9386 23.9439 12.5626 23.9395C12.9346 23.9369 13.2861 24.0124 13.6172 24.1661C13.9423 24.3198 14.2051 24.579 14.4057 24.9436C14.6062 25.3022 14.7086 25.7935 14.713 26.4175L14.7171 27.0024L17.0031 26.9864L17.0126 28.3454L10.5867 28.3904L10.5724 26.3385ZM11.6888 26.4027L11.6932 27.0237L13.6011 27.0103L13.598 26.5603C13.5953 26.1763 13.5182 25.8738 13.3666 25.6529C13.209 25.426 12.9592 25.3137 12.6172 25.3161C11.9933 25.3205 11.6838 25.6827 11.6888 26.4027ZM13.7111 17.0199C14.3771 17.0152 14.9598 17.1221 15.4594 17.3406C15.9529 17.5532 16.3392 17.8835 16.6184 18.3315C16.8975 18.7796 17.0395 19.3546 17.0445 20.0566C17.0494 20.7526 16.9154 21.3295 16.6426 21.7875C16.3698 22.2394 15.9851 22.5781 15.4887 22.8036C14.9922 23.0231 14.411 23.1351 13.745 23.1398C13.079 23.1445 12.4993 23.0405 12.0058 22.828C11.5122 22.6094 11.1289 22.2761 10.8557 21.828C10.5765 21.374 10.4345 20.796 10.4296 20.094C10.4247 19.398 10.5587 18.824 10.8315 18.3721C11.0983 17.9202 11.48 17.5845 11.9765 17.3651C12.4669 17.1396 13.0451 17.0246 13.7111 17.0199ZM13.744 21.7088C14.416 21.7041 14.946 21.5713 15.3342 21.3106C15.7164 21.0499 15.9055 20.6346 15.9015 20.0646C15.8974 19.4826 15.7025 19.067 15.3167 18.8177C14.925 18.5684 14.3931 18.4461 13.7211 18.4509C13.0431 18.4556 12.513 18.5853 12.1308 18.84C11.7486 19.0947 11.5595 19.51 11.5635 20.086C11.5676 20.662 11.7625 21.0777 12.1483 21.333C12.5341 21.5883 13.066 21.7135 13.744 21.7088ZM16.8847 10.1044L16.8968 11.8323L12.0566 14.6653L12.0568 14.7013C12.3627 14.6872 12.6686 14.6731 12.9745 14.6589C13.2804 14.6388 13.5863 14.6216 13.8922 14.6075L16.9161 14.5863L16.9246 15.8012L10.4988 15.8463L10.4867 14.1273L15.2821 11.3036L15.2819 11.2767C14.9819 11.2848 14.685 11.2958 14.3911 11.3099C14.0972 11.324 13.8033 11.338 13.5094 11.3521L10.4674 11.3734L10.4589 10.1494L16.8847 10.1044Z" fill="white"/>
<path d="M230.959 12.8539C230.959 12.3319 230.764 11.9329 230.374 11.6569C229.984 11.3809 229.45 11.2429 228.772 11.2429C228.088 11.2429 227.557 11.3689 227.179 11.6209C226.807 11.8789 226.621 12.2899 226.621 12.8539C226.621 13.1119 226.651 13.3729 226.711 13.6369C226.771 13.9009 226.855 14.1859 226.963 14.4919L225.82 14.4919C225.706 14.2099 225.622 13.9309 225.568 13.6549C225.514 13.3789 225.487 13.0699 225.487 12.7279C225.487 12.0619 225.622 11.5159 225.892 11.0899C226.168 10.6639 226.552 10.3489 227.044 10.1449C227.542 9.94093 228.121 9.83893 228.781 9.83893C229.429 9.83893 230.002 9.95593 230.5 10.1899C230.998 10.4239 231.388 10.7629 231.67 11.2069C231.952 11.6569 232.093 12.2059 232.093 12.8539C232.093 13.1719 232.051 13.4899 231.967 13.8079C231.889 14.1319 231.781 14.4409 231.643 14.7349L230.536 14.2939C230.65 14.0539 230.749 13.8109 230.833 13.5649C230.917 13.3249 230.959 13.0879 230.959 12.8539ZM228.799 21.3786C228.133 21.3786 227.551 21.2676 227.053 21.0456C226.561 20.8296 226.177 20.4936 225.901 20.0376C225.625 19.5876 225.487 19.0146 225.487 18.3186C225.487 17.6226 225.625 17.0466 225.901 16.5906C226.177 16.1406 226.564 15.8046 227.062 15.5826C227.56 15.3666 228.142 15.2586 228.808 15.2586C229.474 15.2586 230.053 15.3666 230.545 15.5826C231.037 15.8046 231.418 16.1406 231.688 16.5906C231.964 17.0466 232.102 17.6256 232.102 18.3276C232.102 19.0236 231.964 19.5966 231.688 20.0466C231.418 20.4966 231.034 20.8296 230.536 21.0456C230.044 21.2676 229.465 21.3786 228.799 21.3786ZM228.799 16.6896C228.127 16.6896 227.596 16.8186 227.206 17.0766C226.822 17.3346 226.63 17.7486 226.63 18.3186C226.63 18.9006 226.822 19.3176 227.206 19.5696C227.596 19.8216 228.127 19.9476 228.799 19.9476C229.471 19.9476 229.999 19.8216 230.383 19.5696C230.773 19.3176 230.968 18.9036 230.968 18.3276C230.968 17.7516 230.773 17.3346 230.383 17.0766C229.999 16.8186 229.471 16.6896 228.799 16.6896ZM232.003 27.8037L227.845 27.8037C227.401 27.8037 226.999 27.7047 226.639 27.5067C226.285 27.3147 226.003 27.0207 225.793 26.6247C225.589 26.2287 225.487 25.7337 225.487 25.1397C225.487 24.2877 225.703 23.6397 226.135 23.1957C226.573 22.7517 227.149 22.5297 227.863 22.5297L232.003 22.5297L232.003 23.8887L228.07 23.8887C227.536 23.8887 227.161 23.9967 226.945 24.2127C226.735 24.4287 226.63 24.7497 226.63 25.1757C226.63 25.6197 226.747 25.9407 226.981 26.1387C227.215 26.3427 227.581 26.4447 228.079 26.4447L232.003 26.4447L232.003 27.8037ZM232.003 31.2944C232.003 32.1224 231.823 32.7254 231.463 33.1034C231.109 33.4874 230.62 33.6794 229.996 33.6794C229.618 33.6794 229.267 33.6014 228.943 33.4454C228.619 33.2894 228.358 33.0284 228.16 32.6624C227.962 32.3024 227.863 31.8104 227.863 31.1864L227.863 30.6014L225.577 30.6014L225.577 29.2424L232.003 29.2424L232.003 31.2944ZM230.887 31.2224L230.887 30.6014L228.979 30.6014L228.979 31.0514C228.979 31.4354 229.054 31.7384 229.204 31.9604C229.36 32.1884 229.609 32.3024 229.951 32.3024C230.575 32.3024 230.887 31.9424 230.887 31.2224ZM228.799 40.5908C228.133 40.5908 227.551 40.4798 227.053 40.2578C226.561 40.0418 226.177 39.7058 225.901 39.2498C225.625 38.7998 225.487 38.2268 225.487 37.5308C225.487 36.8348 225.625 36.2588 225.901 35.8028C226.177 35.3528 226.564 35.0168 227.062 34.7948C227.56 34.5788 228.142 34.4708 228.808 34.4708C229.474 34.4708 230.053 34.5788 230.545 34.7948C231.037 35.0168 231.418 35.3528 231.688 35.8028C231.964 36.2588 232.102 36.8378 232.102 37.5398C232.102 38.2358 231.964 38.8088 231.688 39.2588C231.418 39.7088 231.034 40.0418 230.536 40.2578C230.044 40.4798 229.465 40.5908 228.799 40.5908ZM228.799 35.9018C228.127 35.9018 227.596 36.0308 227.206 36.2888C226.822 36.5468 226.63 36.9608 226.63 37.5308C226.63 38.1128 226.822 38.5298 227.206 38.7818C227.596 39.0338 228.127 39.1598 228.799 39.1598C229.471 39.1598 229.999 39.0338 230.383 38.7818C230.773 38.5298 230.968 38.1158 230.968 37.5398C230.968 36.9638 230.773 36.5468 230.383 36.2888C229.999 36.0308 229.471 35.9018 228.799 35.9018ZM225.577 47.4839L225.577 45.7559L230.437 42.9569L230.437 42.9209C230.131 42.9329 229.825 42.9449 229.519 42.9569C229.213 42.9749 228.907 42.9899 228.601 43.0019L225.577 43.0019L225.577 41.7869L232.003 41.7869L232.003 43.5059L227.188 46.2959L227.188 46.3229C227.482 46.3109 227.776 46.2989 228.07 46.2869C228.364 46.2749 228.661 46.2659 228.961 46.2599L232.003 46.2599L232.003 47.4839L225.577 47.4839Z" fill="white"/>
</svg>
