<svg width="242" height="58" viewBox="0 0 242 58" fill="none" xmlns="http://www.w3.org/2000/svg">
<path d="M9.10141 5.47291C12.4819 4.58456 13.9772 1.45416 14.3022 0H160.412H227.698C227.698 6.26609 241.35 6.97995 242 6.97995V7.53517C239.237 8.01108 239.4 8.80425 239.4 8.96289C239.4 9.72434 241.133 10.1262 242 10.232V11.1045C239.237 11.4217 239.4 12.3735 239.4 12.5322C239.4 13.2936 241.133 13.6955 242 13.8013V14.6738C239.237 15.0703 239.4 15.9428 239.4 16.1015C239.4 16.8629 241.133 17.3177 242 17.4499V18.3224C239.237 18.5603 239.4 19.7501 239.4 19.9087C239.4 20.6067 241.133 20.9927 242 21.0985V21.971C239.4 22.2089 239.4 23.2401 239.4 23.3987C239.4 24.2236 241.133 24.6413 242 24.7471V25.6196C239.4 25.9368 239.4 26.968 239.4 27.1266C239.4 27.8881 241.133 28.2899 242 28.3957V29.2682C239.4 29.5855 239.4 30.458 239.4 30.6166C239.4 31.4415 241.133 31.8592 242 31.965V32.9168C239.237 33.2341 239.4 34.1066 239.4 34.2652C239.4 35.0266 241.133 35.4814 242 35.6136V36.4861C240.05 36.6447 239.4 37.6759 239.4 37.8345C239.4 38.7228 241.133 39.1564 242 39.2622V40.2933C239.237 40.452 239.4 41.5624 239.4 41.7211C239.4 42.2921 241.133 42.7522 242 42.9108V43.704C239.4 43.9419 239.4 45.0524 239.4 45.1317C239.4 45.8297 241.133 46.3215 242 46.4801V47.4319C239.075 47.7492 239.4 48.7803 239.4 48.9389C239.4 49.7004 241.133 50.1023 242 50.208V50.8426C230.428 50.8426 227.644 55.5488 227.698 57.9018H163.013H97.6776H14.3022C13.3271 54.0946 10.0766 53.0635 9.91404 52.9048C7.44365 51.4454 2.27535 50.9748 0 50.9219V50.208C2.11283 50.1287 2.6004 49.1769 2.6004 48.9389C2.6004 47.9871 0.866801 47.6434 0 47.5906V46.5594C1.9503 46.5594 2.6004 45.5283 2.6004 45.3697C2.6004 44.4178 0.866801 44.0213 0 43.9419V42.9108C1.9503 42.9108 2.6004 41.959 2.6004 41.8004C2.6004 40.7216 0.866801 40.452 0 40.452V39.1829C2.11283 39.1829 2.6004 38.2311 2.6004 38.0724C2.86044 37.1206 0.975151 36.8298 0 36.8034V35.6136C2.11283 35.6136 2.6004 34.5032 2.6004 34.3445C2.6004 33.4562 0.866801 33.1812 0 33.1548V32.0443C1.9503 31.965 2.6004 31.0132 2.6004 30.8545C2.6004 29.8393 0.866801 29.5855 0 29.5855V28.475C2.6004 28.1577 2.6004 27.2059 2.6004 27.1266C2.47038 26.3017 0.812626 26.0426 0 26.0162V24.7471C2.76293 24.5091 2.6004 23.6366 2.6004 23.478C2.6004 22.4627 0.866801 22.2089 0 22.2089V21.0985C2.76293 20.9398 2.6004 19.988 2.6004 19.8294C2.47038 18.8776 0.812626 18.5868 0 18.5603V17.5292C2.6004 17.2912 2.6004 16.3394 2.6004 16.1015C2.6004 15.1497 0.866801 14.8588 0 14.8324V13.8806C2.11283 13.8806 2.6004 12.7701 2.6004 12.5322C2.6004 11.6438 0.866801 11.3689 0 11.3424V10.1527C2.43788 9.83538 2.43788 9.12152 2.43788 8.88357C2.5679 8.12212 0.866801 7.77312 0 7.69381V6.90063C6.50101 6.90063 7.96373 5.79018 9.10141 5.47291Z" fill="#F1EF5B"/>
<path d="M56.0732 12.6191C47.2482 12.6191 40.0859 19.8859 40.0859 28.8395C40.0859 37.7932 47.2482 45.0599 56.0732 45.0599C64.8981 45.0599 72.0604 37.7932 72.0604 28.8395C72.0604 19.8859 64.8981 12.6191 56.0732 12.6191ZM58.3274 38.7177V41.8158H54.0588V38.6853C51.325 38.1013 49.0068 36.3171 48.831 33.1704H51.9645C52.1243 34.8735 53.2754 36.2036 56.2011 36.2036C59.3346 36.2036 60.038 34.614 60.038 33.6245C60.038 32.2782 59.3346 31.013 55.7694 30.1534C51.8046 29.1801 49.0868 27.5257 49.0868 24.2005C49.0868 21.4106 51.309 19.5939 54.0588 18.9937V15.8632H58.3274V19.0262C61.301 19.7561 62.7878 22.0432 62.8838 24.5249H59.7502C59.6703 22.7244 58.7271 21.4917 56.2011 21.4917C53.803 21.4917 52.3641 22.5947 52.3641 24.1518C52.3641 25.5143 53.4033 26.4065 56.6327 27.2499C59.8622 28.0934 63.3154 29.5045 63.3154 33.5921C63.2994 36.5604 61.1092 38.1824 58.3274 38.7177Z" fill="black"/>
<path d="M93.9281 29.5148H85.7201V28.4168H93.9281V29.5148ZM85.7201 35.1668V33.9428H93.9281V35.1668H85.7201ZM93.9281 32.3048H85.7201V31.1348H93.9281V32.3048ZM98.0681 25.4288V23.4488H94.0361C94.5041 22.8908 95.0081 22.2248 95.4761 21.5408L93.0101 21.0008C92.7041 21.7388 92.1461 22.7108 91.6241 23.4488H87.5021L88.2941 23.0348C87.9341 22.4408 87.2141 21.5588 86.5481 20.9108L84.6401 21.7748C85.0721 22.2788 85.5761 22.8908 85.9361 23.4488H81.8141V25.4288H88.6541C88.5641 25.8068 88.4741 26.1848 88.3481 26.5628H83.5961V37.8848H85.7201V37.0388H93.9281V37.8848H96.1601V26.5628H90.7241C90.8861 26.2028 91.0661 25.8248 91.2281 25.4288H98.0681ZM103.648 25.0688H101.866V23.4128H103.648V25.0688ZM103.648 28.3448H101.866V26.6708H103.648V28.3448ZM103.648 31.6208H101.866V29.9288H103.648V31.6208ZM105.52 21.7208H100.048V33.3308H105.52V21.7208ZM100.912 33.4568C100.552 34.7168 99.8681 36.0128 99.0581 36.8588C99.5081 37.0928 100.282 37.5968 100.642 37.9028C101.488 36.9308 102.316 35.3828 102.784 33.8708L100.912 33.4568ZM103.018 34.0868C103.594 35.0228 104.242 36.3008 104.494 37.1288L106.15 36.3188C105.862 35.5268 105.196 34.3208 104.602 33.4208L103.018 34.0868ZM111.82 33.4748V32.5748H113.224V33.4748H111.82ZM108.598 32.5748H109.966V33.4748H108.598V32.5748ZM109.966 30.4328V31.2608H108.598V30.4328H109.966ZM113.224 30.4328V31.2608H111.82V30.4328H113.224ZM109.966 26.0408H111.802V26.7428H109.966V26.0408ZM109.966 23.9528H111.802V24.6188H109.966V23.9528ZM115.996 33.4748H115.168V28.9388H111.82V28.2548H115.978V26.7428H113.71V26.0408H115.366V24.6188H113.71V23.9528H115.654V22.4408H113.71V21.0728H111.802V22.4408H109.966V21.0728H108.094V22.4408H106.15V23.9528H108.094V24.6188H106.564V26.0408H108.094V26.7428H105.844V28.2548H109.966V28.9388H106.726V33.4748H105.754V34.9688H106.726V37.8848H108.598V34.9688H113.224V35.9048C113.224 36.1028 113.152 36.1748 112.918 36.1748C112.702 36.1748 111.928 36.1748 111.226 36.1568C111.46 36.6248 111.712 37.3628 111.784 37.8668C112.954 37.8668 113.8 37.8488 114.394 37.5608C114.988 37.2728 115.168 36.8228 115.168 35.9228V34.9688H115.996V33.4748ZM128.214 36.3008H125.496V28.8668C125.496 28.5548 125.502 28.1468 125.514 27.6428C125.538 27.1388 125.556 26.6948 125.568 26.3108C125.508 26.3828 125.376 26.5148 125.172 26.7068C124.98 26.8868 124.8 27.0488 124.632 27.1928L123.156 28.3808L121.842 26.7428L125.982 23.4488H128.214V36.3008ZM140.441 29.8748C140.441 31.2548 140.291 32.4368 139.991 33.4208C139.703 34.4048 139.229 35.1608 138.569 35.6888C137.921 36.2168 137.045 36.4808 135.941 36.4808C134.393 36.4808 133.259 35.8988 132.539 34.7348C131.819 33.5588 131.459 31.9388 131.459 29.8748C131.459 28.4828 131.603 27.2948 131.891 26.3108C132.179 25.3268 132.653 24.5708 133.313 24.0428C133.973 23.5148 134.849 23.2508 135.941 23.2508C137.477 23.2508 138.611 23.8328 139.343 24.9968C140.075 26.1608 140.441 27.7868 140.441 29.8748ZM134.159 29.8748C134.159 31.3388 134.285 32.4428 134.537 33.1868C134.789 33.9188 135.257 34.2848 135.941 34.2848C136.613 34.2848 137.081 33.9188 137.345 33.1868C137.609 32.4548 137.741 31.3508 137.741 29.8748C137.741 28.4108 137.609 27.3068 137.345 26.5628C137.081 25.8188 136.613 25.4468 135.941 25.4468C135.257 25.4468 134.789 25.8188 134.537 26.5628C134.285 27.3068 134.159 28.4108 134.159 29.8748ZM144.423 23.2688C145.431 23.2688 146.193 23.6228 146.709 24.3308C147.237 25.0268 147.501 26.0108 147.501 27.2828C147.501 28.5548 147.255 29.5508 146.763 30.2708C146.271 30.9788 145.491 31.3328 144.423 31.3328C143.439 31.3328 142.689 30.9788 142.173 30.2708C141.657 29.5508 141.399 28.5548 141.399 27.2828C141.399 26.0108 141.639 25.0268 142.119 24.3308C142.599 23.6228 143.367 23.2688 144.423 23.2688ZM153.549 23.4488L146.421 36.3008H144.315L151.443 23.4488H153.549ZM144.441 25.1048C143.889 25.1048 143.613 25.8368 143.613 27.3008C143.613 28.7768 143.889 29.5148 144.441 29.5148C145.005 29.5148 145.287 28.7768 145.287 27.3008C145.287 25.8368 145.005 25.1048 144.441 25.1048ZM153.423 28.3988C154.431 28.3988 155.193 28.7528 155.709 29.4608C156.237 30.1568 156.501 31.1408 156.501 32.4128C156.501 33.6848 156.255 34.6808 155.763 35.4008C155.271 36.1088 154.491 36.4628 153.423 36.4628C152.439 36.4628 151.689 36.1088 151.173 35.4008C150.657 34.6808 150.399 33.6848 150.399 32.4128C150.399 31.1408 150.639 30.1568 151.119 29.4608C151.599 28.7528 152.367 28.3988 153.423 28.3988ZM153.441 30.2348C152.889 30.2348 152.613 30.9668 152.613 32.4308C152.613 33.9068 152.889 34.6448 153.441 34.6448C154.005 34.6448 154.287 33.9068 154.287 32.4308C154.287 30.9668 154.005 30.2348 153.441 30.2348ZM165.018 21.0728C164.226 23.7188 162.894 26.3468 161.454 28.0208C161.796 28.5788 162.318 29.8208 162.48 30.3248C162.858 29.8928 163.236 29.3888 163.596 28.8488V37.8488H165.63V25.1588C166.152 24.0068 166.62 22.8188 166.998 21.6668L165.018 21.0728ZM174.378 34.0868C173.892 34.4468 173.298 34.7708 172.56 35.0588C171.876 34.7888 171.264 34.4648 170.778 34.0868H174.378ZM169.95 29.8928V30.5228L168.816 29.9108C168.69 30.0908 168.528 30.2888 168.366 30.4688V29.6048H171.462C172.038 30.0368 172.668 30.6308 172.956 31.0988L174.252 30.3248C174.09 30.1088 173.856 29.8568 173.568 29.6048H176.682V30.1808C176.556 30.0548 176.43 29.9468 176.304 29.8388L174.99 30.5048C175.152 30.6488 175.332 30.8288 175.494 30.9908C175.08 30.9188 174.594 30.7568 174.324 30.6128C174.252 31.1348 174.162 31.2248 173.802 31.2248H172.218C171.732 31.2248 171.624 31.1708 171.624 30.7928V29.8928H169.95ZM170.094 27.8228H175.08V28.3808H170.094V27.8228ZM175.08 24.9788V25.5188H170.094V24.9788H175.08ZM175.08 26.9588H170.094V26.3828H175.08V26.9588ZM175.998 32.8088L175.638 32.8808H171.984C172.182 32.7188 172.362 32.5388 172.524 32.3588H174.036C175.062 32.3588 175.476 32.0708 175.638 31.1528C176.106 31.6568 176.556 32.1968 176.79 32.6108L178.176 31.8728C178.014 31.6028 177.744 31.2788 177.456 30.9548H178.59V28.3808H177.078V23.9348H173.226L173.514 23.3048H178.212V21.7748H167.178V23.3048H171.3C171.246 23.5208 171.21 23.7368 171.156 23.9348H168.186V28.3808H166.548V30.9548H167.898C167.61 31.2248 167.286 31.4768 166.962 31.6568L168.222 32.6648C168.888 32.1968 169.482 31.5308 169.95 30.9008C169.968 31.5308 170.094 31.9088 170.472 32.1248C169.572 32.9168 168.15 33.6548 166.278 34.1948C166.656 34.4648 167.196 35.0768 167.448 35.4908C168.042 35.2568 168.6 35.0228 169.104 34.7708C169.482 35.1308 169.896 35.4548 170.346 35.7428C169.158 36.0128 167.808 36.2468 166.296 36.3908C166.674 36.8048 167.124 37.4708 167.322 37.9388C169.266 37.6688 170.994 37.2908 172.452 36.7868C173.964 37.3628 175.728 37.7048 177.69 37.9028C177.942 37.3808 178.41 36.6248 178.806 36.1928C177.384 36.1208 176.052 35.9588 174.846 35.7248C175.908 35.1128 176.718 34.3748 177.276 33.5288L175.998 32.8088ZM192.252 25.6268V26.4548H188.886V25.6268H192.252ZM188.886 30.7208V29.7128H191.118L190.308 30.2528C190.578 30.3968 190.848 30.5408 191.136 30.7028L188.886 30.7208ZM188.886 27.6248H192.252V28.4528H188.886V27.6248ZM183.234 28.4528V27.6248H186.672V28.4528H183.234ZM183.234 25.6268H186.672V26.4548H183.234V25.6268ZM186.672 24.3848H181.218V29.7128H186.672V30.7208C184.206 30.7388 181.956 30.7388 180.228 30.7208L180.318 32.5208C182.19 32.5028 184.584 32.4668 187.194 32.4308L186.258 33.1688C187.23 33.7808 188.4 34.7348 188.94 35.3828L190.398 34.1408C189.93 33.6188 189.066 32.9528 188.238 32.4128C189.93 32.3768 191.694 32.3408 193.404 32.3048C193.728 32.5928 194.016 32.8448 194.25 33.0968L195.744 31.9448C195.042 31.2788 193.8 30.3788 192.594 29.7128H194.376V24.3848H188.886V23.5928H195.6V21.9188H188.886V21.0548H186.672V21.9188H180.138V23.5928H186.672V24.3848ZM181.452 37.3448C182.154 36.4088 182.712 35.0048 183.108 33.8528L181.254 33.0968C180.912 34.1948 180.3 35.4728 179.598 36.3008L181.452 37.3448ZM186.888 35.8508C185.844 35.8508 185.664 35.7788 185.664 35.2928V33.2588H183.54V35.3108C183.54 37.0568 184.188 37.5788 186.69 37.5788H190.218C192.072 37.5788 192.666 37.0568 192.918 34.9688C192.342 34.8608 191.514 34.5728 191.064 34.3028C190.974 35.6348 190.812 35.8508 190.02 35.8508H186.888ZM192.288 33.7808C193.08 34.8968 193.818 36.3908 194.034 37.3268L196.014 36.6968C195.762 35.6708 194.97 34.2668 194.142 33.1868L192.288 33.7808Z" fill="black"/>
<line x1="24.2544" y1="2.96875" x2="24.2544" y2="55.6743" stroke="black" stroke-dasharray="3 3"/>
<line x1="219.488" y1="2.96875" x2="219.488" y2="55.6743" stroke="black" stroke-dasharray="3 3"/>
<path d="M11.7456 44.7712C11.7493 45.2932 11.9471 45.6908 12.339 45.9641C12.7309 46.2374 13.2659 46.3716 13.9439 46.3669C14.6278 46.3621 15.1579 46.2323 15.5342 45.9777C15.9043 45.7171 16.0875 45.3048 16.0835 44.7408C16.0817 44.4768 16.0498 44.216 15.988 43.9585C15.9262 43.6949 15.8402 43.4105 15.73 43.1053L16.873 43.0972C16.989 43.3784 17.0749 43.6568 17.1309 43.9325C17.1868 44.2081 17.216 44.5169 17.2184 44.8589C17.223 45.5188 17.0918 46.0658 16.8249 46.4997C16.5519 46.9276 16.1701 47.2453 15.6795 47.4527C15.183 47.6602 14.6047 47.7663 13.9447 47.7709C13.2967 47.7754 12.7229 47.6624 12.2233 47.4319C11.7237 47.2014 11.3313 46.8652 11.0462 46.4232C10.761 45.9752 10.6162 45.4272 10.6116 44.7792C10.6094 44.4612 10.6492 44.1429 10.731 43.8243C10.8067 43.4998 10.9125 43.19 11.0484 42.8951L12.1585 43.3283C12.0462 43.5691 11.9489 43.8128 11.8666 44.0594C11.7843 44.2999 11.744 44.5372 11.7456 44.7712ZM13.8458 36.2316C14.5118 36.2269 15.0945 36.3339 15.5941 36.5524C16.0876 36.7649 16.4739 37.0952 16.7531 37.5433C17.0322 37.9913 17.1742 38.5663 17.1792 39.2683C17.184 39.9643 17.0501 40.5412 16.7773 40.9992C16.5045 41.4511 16.1198 41.7898 15.6234 42.0153C15.1269 42.2348 14.5457 42.3468 13.8797 42.3515C13.2137 42.3562 12.634 42.2522 12.1405 42.0397C11.6469 41.8212 11.2636 41.4878 10.9904 41.0397C10.7112 40.5857 10.5692 40.0077 10.5643 39.3057C10.5594 38.6097 10.6934 38.0358 10.9662 37.5838C11.233 37.1319 11.6147 36.7963 12.1112 36.5768C12.6016 36.3513 13.1798 36.2363 13.8458 36.2316ZM13.8787 40.9205C14.5507 40.9158 15.0807 40.7831 15.4689 40.5223C15.8511 40.2616 16.0402 39.8463 16.0362 39.2763C16.0321 38.6943 15.8372 38.2787 15.4514 38.0294C15.0597 37.7801 14.5278 37.6579 13.8558 37.6626C13.1778 37.6673 12.6477 37.797 12.2655 38.0517C11.8833 38.3064 11.6942 38.7218 11.6982 39.2977C11.7023 39.8737 11.8972 40.2894 12.283 40.5447C12.6688 40.8 13.2007 40.9252 13.8787 40.9205ZM14.7547 29.8C15.1987 29.7969 15.6014 29.8931 15.9628 30.0885C16.3181 30.278 16.6022 30.5701 16.8149 30.9646C17.0217 31.3531 17.1271 31.8474 17.1313 32.4474C17.1373 33.2994 16.9259 33.9489 16.497 34.3959C16.0621 34.8429 15.4877 35.069 14.7737 35.074L10.6338 35.103L10.6243 33.744L14.5572 33.7165C15.0852 33.7128 15.4564 33.6022 15.6709 33.3847C15.8854 33.1671 15.9911 32.8454 15.9881 32.4194C15.985 31.9754 15.8658 31.6552 15.6304 31.4589C15.395 31.2565 15.0282 31.1571 14.5303 31.1606L10.6064 31.1881L10.5968 29.8291L14.7547 29.8ZM10.5724 26.3385C10.5665 25.5105 10.7423 24.9063 11.0997 24.5257C11.451 24.1393 11.9386 23.9439 12.5626 23.9395C12.9346 23.9369 13.2861 24.0124 13.6172 24.1661C13.9423 24.3198 14.2051 24.579 14.4057 24.9436C14.6062 25.3022 14.7086 25.7935 14.713 26.4175L14.7171 27.0024L17.0031 26.9864L17.0126 28.3454L10.5867 28.3904L10.5724 26.3385ZM11.6888 26.4027L11.6932 27.0237L13.6011 27.0103L13.598 26.5603C13.5953 26.1763 13.5182 25.8738 13.3666 25.6529C13.209 25.426 12.9592 25.3137 12.6172 25.3161C11.9933 25.3205 11.6838 25.6827 11.6888 26.4027ZM13.7111 17.0199C14.3771 17.0152 14.9598 17.1221 15.4594 17.3406C15.9529 17.5532 16.3392 17.8835 16.6184 18.3315C16.8975 18.7796 17.0395 19.3546 17.0445 20.0566C17.0494 20.7526 16.9154 21.3295 16.6426 21.7875C16.3698 22.2394 15.9851 22.5781 15.4887 22.8036C14.9922 23.0231 14.411 23.1351 13.745 23.1398C13.079 23.1445 12.4993 23.0405 12.0058 22.828C11.5122 22.6094 11.1289 22.2761 10.8557 21.828C10.5765 21.374 10.4345 20.796 10.4296 20.094C10.4247 19.398 10.5587 18.824 10.8315 18.3721C11.0983 17.9202 11.48 17.5845 11.9765 17.3651C12.4669 17.1396 13.0451 17.0246 13.7111 17.0199ZM13.744 21.7088C14.416 21.7041 14.946 21.5713 15.3342 21.3106C15.7164 21.0499 15.9055 20.6346 15.9015 20.0646C15.8974 19.4826 15.7025 19.067 15.3167 18.8177C14.925 18.5684 14.3931 18.4461 13.7211 18.4509C13.0431 18.4556 12.513 18.5853 12.1308 18.84C11.7486 19.0947 11.5595 19.51 11.5635 20.086C11.5676 20.662 11.7625 21.0777 12.1483 21.333C12.5341 21.5883 13.066 21.7135 13.744 21.7088ZM16.8847 10.1044L16.8968 11.8323L12.0566 14.6653L12.0568 14.7013C12.3627 14.6872 12.6686 14.6731 12.9745 14.6589C13.2804 14.6388 13.5863 14.6216 13.8922 14.6075L16.9161 14.5863L16.9246 15.8012L10.4988 15.8463L10.4867 14.1273L15.2821 11.3036L15.2819 11.2767C14.9819 11.2848 14.685 11.2958 14.3911 11.3099C14.0972 11.324 13.8033 11.338 13.5094 11.3521L10.4674 11.3734L10.4589 10.1494L16.8847 10.1044Z" fill="white"/>
<path d="M230.959 12.8539C230.959 12.3319 230.764 11.9329 230.374 11.6569C229.984 11.3809 229.45 11.2429 228.772 11.2429C228.088 11.2429 227.557 11.3689 227.179 11.6209C226.807 11.8789 226.621 12.2899 226.621 12.8539C226.621 13.1179 226.651 13.3789 226.711 13.6369C226.771 13.9009 226.855 14.1859 226.963 14.4919L225.82 14.4919C225.706 14.2099 225.622 13.9309 225.568 13.6549C225.514 13.3789 225.487 13.0699 225.487 12.7279C225.487 12.0679 225.622 11.5219 225.892 11.0899C226.168 10.6639 226.552 10.3489 227.044 10.1449C227.542 9.94093 228.121 9.83893 228.781 9.83893C229.429 9.83893 230.002 9.95593 230.5 10.1899C230.998 10.4239 231.388 10.7629 231.67 11.2069C231.952 11.6569 232.093 12.2059 232.093 12.8539C232.093 13.1719 232.051 13.4899 231.967 13.8079C231.889 14.1319 231.781 14.4409 231.643 14.7349L230.536 14.2939C230.65 14.0539 230.749 13.8109 230.833 13.5649C230.917 13.3249 230.959 13.0879 230.959 12.8539ZM228.799 21.3786C228.133 21.3786 227.551 21.2676 227.053 21.0456C226.561 20.8296 226.177 20.4966 225.901 20.0466C225.625 19.5966 225.487 19.0206 225.487 18.3186C225.487 17.6226 225.625 17.0466 225.901 16.5906C226.177 16.1406 226.564 15.8046 227.062 15.5826C227.56 15.3666 228.142 15.2586 228.808 15.2586C229.474 15.2586 230.053 15.3666 230.545 15.5826C231.037 15.8046 231.418 16.1406 231.688 16.5906C231.964 17.0466 232.102 17.6256 232.102 18.3276C232.102 19.0236 231.964 19.5966 231.688 20.0466C231.418 20.4966 231.034 20.8296 230.536 21.0456C230.044 21.2676 229.465 21.3786 228.799 21.3786ZM228.799 16.6896C228.127 16.6896 227.596 16.8186 227.206 17.0766C226.822 17.3346 226.63 17.7486 226.63 18.3186C226.63 18.9006 226.822 19.3176 227.206 19.5696C227.596 19.8216 228.127 19.9476 228.799 19.9476C229.477 19.9476 230.008 19.8216 230.392 19.5696C230.776 19.3176 230.968 18.9036 230.968 18.3276C230.968 17.7516 230.776 17.3346 230.392 17.0766C230.008 16.8186 229.477 16.6896 228.799 16.6896ZM227.845 27.8037C227.401 27.8037 226.999 27.7047 226.639 27.5067C226.285 27.3147 226.003 27.0207 225.793 26.6247C225.589 26.2347 225.487 25.7397 225.487 25.1397C225.487 24.2877 225.703 23.6397 226.135 23.1957C226.573 22.7517 227.149 22.5297 227.863 22.5297L232.003 22.5297L232.003 23.8887L228.07 23.8887C227.542 23.8887 227.17 23.9967 226.954 24.2127C226.738 24.4287 226.63 24.7497 226.63 25.1757C226.63 25.6197 226.747 25.9407 226.981 26.1387C227.215 26.3427 227.581 26.4447 228.079 26.4447L232.003 26.4447L232.003 27.8037L227.845 27.8037ZM232.003 31.2944C232.003 32.1224 231.823 32.7254 231.463 33.1034C231.109 33.4874 230.62 33.6794 229.996 33.6794C229.624 33.6794 229.273 33.6014 228.943 33.4454C228.619 33.2894 228.358 33.0284 228.16 32.6624C227.962 32.3024 227.863 31.8104 227.863 31.1864L227.863 30.6014L225.577 30.6014L225.577 29.2424L232.003 29.2424L232.003 31.2944ZM230.887 31.2224L230.887 30.6014L228.979 30.6014L228.979 31.0514C228.979 31.4354 229.054 31.7384 229.204 31.9604C229.36 32.1884 229.609 32.3024 229.951 32.3024C230.575 32.3024 230.887 31.9424 230.887 31.2224ZM228.799 40.5908C228.133 40.5908 227.551 40.4798 227.053 40.2578C226.561 40.0418 226.177 39.7088 225.901 39.2588C225.625 38.8088 225.487 38.2328 225.487 37.5308C225.487 36.8348 225.625 36.2588 225.901 35.8028C226.177 35.3528 226.564 35.0168 227.062 34.7948C227.56 34.5788 228.142 34.4708 228.808 34.4708C229.474 34.4708 230.053 34.5788 230.545 34.7948C231.037 35.0168 231.418 35.3528 231.688 35.8028C231.964 36.2588 232.102 36.8378 232.102 37.5398C232.102 38.2358 231.964 38.8088 231.688 39.2588C231.418 39.7088 231.034 40.0418 230.536 40.2578C230.044 40.4798 229.465 40.5908 228.799 40.5908ZM228.799 35.9018C228.127 35.9018 227.596 36.0308 227.206 36.2888C226.822 36.5468 226.63 36.9608 226.63 37.5308C226.63 38.1128 226.822 38.5298 227.206 38.7818C227.596 39.0338 228.127 39.1598 228.799 39.1598C229.477 39.1598 230.008 39.0338 230.392 38.7818C230.776 38.5298 230.968 38.1158 230.968 37.5398C230.968 36.9638 230.776 36.5468 230.392 36.2888C230.008 36.0308 229.477 35.9018 228.799 35.9018ZM225.577 47.4839L225.577 45.7559L230.437 42.9569L230.437 42.9209C230.131 42.9329 229.825 42.9449 229.519 42.9569C229.213 42.9749 228.907 42.9899 228.601 43.0019L225.577 43.0019L225.577 41.7869L232.003 41.7869L232.003 43.5059L227.188 46.2959L227.188 46.3229C227.488 46.3169 227.785 46.3079 228.079 46.2959C228.373 46.2839 228.667 46.2719 228.961 46.2599L232.003 46.2599L232.003 47.4839L225.577 47.4839Z" fill="white"/>
</svg>
