<svg width="27" height="43" viewBox="0 0 27 43" fill="none" xmlns="http://www.w3.org/2000/svg">
<path d="M16.3637 21.5L25.0172 12.8866L26.8017 11.1103C27.065 10.8483 27.065 10.4225 26.8017 10.1604L24.8923 8.25986C24.6291 7.99783 24.2013 7.99783 23.938 8.25986L13.5 18.6496L3.06197 8.25902C2.79872 7.99699 2.37094 7.99699 2.10769 8.25902L0.197437 10.1596C-0.0658125 10.4216 -0.0658125 10.8474 0.197437 11.1095L10.6363 21.5L0.197437 31.8897C-0.0658125 32.1517 -0.0658125 32.5775 0.197437 32.8396L2.10684 34.7401C2.37009 35.0022 2.79787 35.0022 3.06113 34.7401L13.5 24.3504L22.1535 32.9639L23.938 34.7401C24.2013 35.0022 24.6291 35.0022 24.8923 34.7401L26.8017 32.8396C27.065 32.5775 27.065 32.1517 26.8017 31.8897L16.3637 21.5Z" fill="black"/>
</svg>
