<svg width="20" height="20" viewBox="0 0 20 20" fill="none" xmlns="http://www.w3.org/2000/svg">
<path fill-rule="evenodd" clip-rule="evenodd" d="M14.5884 7.5C14.5884 11.366 11.4544 14.5 7.58838 14.5C3.72239 14.5 0.588379 11.366 0.588379 7.5C0.588379 3.63401 3.72239 0.5 7.58838 0.5C11.4544 0.5 14.5884 3.63401 14.5884 7.5ZM12.5884 7.5C12.5884 10.2614 10.3498 12.5 7.58838 12.5C4.82696 12.5 2.58838 10.2614 2.58838 7.5C2.58838 4.73858 4.82696 2.5 7.58838 2.5C10.3498 2.5 12.5884 4.73858 12.5884 7.5Z" fill="white"/>
<path d="M12.4941 13.8199C13.0224 13.4092 13.4977 12.9339 13.9084 12.4056L19.2956 17.7929C19.6861 18.1834 19.6861 18.8166 19.2956 19.2071C18.9051 19.5976 18.2719 19.5976 17.8814 19.2071L12.4941 13.8199Z" fill="white"/>
</svg>
