<svg width="89" height="92" viewBox="0 0 89 92" fill="none" xmlns="http://www.w3.org/2000/svg">
<path d="M37.0787 62.9446L58.9639 45.9726L37.0787 29.0006V62.9446ZM44.3738 8.25708C24.2394 8.25708 7.89844 25.1536 7.89844 45.9726C7.89844 66.7916 24.2394 83.6881 44.3738 83.6881C64.5081 83.6881 80.8491 66.7916 80.8491 45.9726C80.8491 25.1536 64.5081 8.25708 44.3738 8.25708ZM44.3738 76.145C28.2881 76.145 15.1935 62.6051 15.1935 45.9726C15.1935 29.3401 28.2881 15.8002 44.3738 15.8002C60.4594 15.8002 73.554 29.3401 73.554 45.9726C73.554 62.6051 60.4594 76.145 44.3738 76.145Z" fill="#323232"/>
</svg>
