<svg width="25" height="29" viewBox="0 0 25 29" fill="none" xmlns="http://www.w3.org/2000/svg">
<g clip-path="url(#clip0_2109:2167)">
<path d="M12.2915 14.5C16.1006 14.5 19.1878 11.2545 19.1878 7.25C19.1878 3.24551 16.1006 0 12.2915 0C8.48233 0 5.39514 3.24551 5.39514 7.25C5.39514 11.2545 8.48233 14.5 12.2915 14.5ZM17.1189 16.3125H16.2191C15.0231 16.8902 13.6923 17.2188 12.2915 17.2188C10.8907 17.2188 9.56527 16.8902 8.3638 16.3125H7.46404C3.46633 16.3125 0.2229 19.7223 0.2229 23.925V26.2812C0.2229 27.7822 1.38127 29 2.80902 29H21.7739C23.2017 29 24.36 27.7822 24.36 26.2812V23.925C24.36 19.7223 21.1166 16.3125 17.1189 16.3125Z" fill="#065F8E"/>
</g>
<defs>
<clipPath id="clip0_2109:2167">
<rect width="24.1371" height="29" fill="white" transform="translate(0.2229)"/>
</clipPath>
</defs>
</svg>
